<svg xmlns="http://www.w3.org/2000/svg" viewBox="0 0 243.84699 224.23263" height="239.181" width="260.103"><defs><marker orient="auto" id="c" overflow="visible"><path d="M1.96 0a2 2 0 1 1-4.001-.001A2 2 0 0 1 1.96 0z" fill="#4d4d4d" fill-rule="evenodd" stroke="#4d4d4d" stroke-width=".4pt"/></marker><marker id="b" orient="auto" overflow="visible"><path d="M1.96 0a2 2 0 1 1-4.001-.001A2 2 0 0 1 1.96 0z" fill="#4d4d4d" fill-rule="evenodd" stroke="#4d4d4d" stroke-width=".4pt"/></marker><marker id="a" orient="auto" overflow="visible"><path d="M1.96 0a2 2 0 1 1-4.001-.001A2 2 0 0 1 1.96 0z" fill="#4d4d4d" fill-rule="evenodd" stroke="#4d4d4d" stroke-width=".4pt"/></marker></defs><rect ry="0" y="-.52" x="-1.414" height="411.536" width="637.81" fill="none" transform="translate(-148.649 -64.72)"/><path d="M52.878 36.585l-6.72 1.06c-1.907.99-1.91 3.02-1.942 4.95l4.507 28.285-10.52 47.021-14.333-2.107-3.924 8.222-18.62-.353c-2.03 2.067-1.486 4.05 0 6h7.5v93.75h43.25v-93.5l58.077-.698c.314-1.707 1.197-3.37-1.414-5.302l.354-2.477-26.784-3.27-.441 5.747H63.66l-.885-3.537-15.113-1.237 2.738-37.3 4.067 24.042c.63 1.904 1.47 3.598 4.42 3.182l5.302-1.06-11.312-71.418zm32.644 84.765l20.492 2.938-20.5.25.008-3.188z" fill="#999" fill-rule="evenodd"/><path d="M96.09 218.161c.356 1.414.018 4.661-2.263 4.753-10.54.423-26.288.088-33 0-1.167-.016-1.12-3.173 0-3.5 8.679-2.54 14.78-3.429 21-10.25 2.033.596.872-34.611-.427-56.614-.325-5.497 6.661-8.054 10.588-8.902 14.485-3.124 45.316-6.073 46.089-8.984 1.15-4.337 1.9-18.854-.073-27.97-1.935-8.94-6.503-19.41-.24-29.977 1.908-3.22 7.563-8.303 7.563-8.303s1.28-5.737-.5-7.5c-2.076-2.056-5.778-.426-8.75-.5-2.196-.555-2.75-2.36-2.819-4.157-.064-1.676-.369-6-.369-6l-4.062-.156 4-7.437s-.13-8.159 1.56-10.647c2.996-4.408 7.002-6.823 13.19-7.603 12.072-1.522 19.395 6.735 18.5 17.5-.315 3.788-5 10.25-5 10.25.134-.134-1.073 13.112 3.25 15.875 3.336 2.132 5.849 16.497 4.25 26.375-2.866 17.706-2.615 34.72.375 51.375.86 4.794-3.32 10.266-8.375 11.875-12.764 4.06-63.75.894-63.75 2.937 1.828 4.302 2.15 10.178 1.875 15.313-.403 7.519-4.729 14.48-5.125 22-.358 6.791 1.06 14.462 2.514 20.247z" fill="#4d4d4d" fill-rule="evenodd"/><path d="M153.64 68.934c-3.795.011-9.125 2.923-9.193 6.718-.176 9.89 1.36 32.536 1.06 32.527l-31.076 2.338c-1.808-.17-7.204.099-13.487.907-4.586 1.73-6.293 2.995-11.798 5.928 3.762.502 10.585-.072 15.985-.502 3.992 3.071 7.26.529 10.127-.135 6.09-1.41 30.317 2.525 37.385 3.534 4.583.655 6.38-2.813 7.36-5.706 3.933-11.606 3.85-32.42 3.92-38.184.052-4.345-6.056-7.437-10.283-7.425z" fill="#999" fill-rule="evenodd"/><g transform="translate(-148.649 -64.72)" fill="#999"><path d="M323.721 151.752c-10.27 8.998-8.011 24.613-9.16 37.279-.812 8.96.67 13.502 2.414 17.602.525 1.234 3.284 1.305 4.018.183 2.42-3.697 3.475-21.12 3.67-21.12 0 0 2.242 31.016 2.75 42.75.401 9.265-17.222 9.195-17.375 8.187 3.12-2.112 7.99-5.665 7.062-9.5-.622-2.572-4.479-3.451-7.125-3.5-16.518-.305-20.83 1.218-50.5 2.75-3.216.166-7.347 1.54-7.454 6.15-.07 3.042 2.068 4.724 4.204 4.85 6.044.357 19.471-1.94 19.563-.75l-.063 7.15c1.652 2.4 2.731 4.142 2.75 4.91v19.44l-28 9c-.599.946-.483 1.554.5 1.75l28.708-5.602.588 5.94c1.04.554 2.156.9 3.779.176l.675-6.014 27.163 5.751c3.372 1.034 3.498-.446 1.836-1.53-3.653-2.382-27.652-8.608-27.499-9.221l-.25-19.25c.078-1.667 1.833-3.333 3.25-5 .016-1.333.007-2.667.25-4 .24-1.857 24.666.69 34.25-1.5 2.91-.665 7.333-5.301 7-10.5-.938-14.644-3.611-32.869-4-49.5l-3.192-.881c-.105.088 5.838-15.613 4.53-24.515-.401-2.728-2.963-2.693-4.342-1.485z" fill-rule="evenodd"/><circle r="4.773" cy="284.179" cx="282.136"/><circle r="4.596" cy="283.707" cx="313.488"/><circle r="4.685" cy="283.305" cx="251.465"/><path d="M263.044 185.803c4.074-2.689 34.38 1.025 43.31 1.06 1.99.009 1.767 2.354.884 2.652-2.503.845-18.385.354-18.385.354l3.89 38.36-11.491.53 3.358-38.714s-13.02-1.954-21.566-1.149c-1.406.133-.861-2.525 0-3.093z" fill-rule="evenodd"/></g><g transform="translate(-148.649 -64.72)"><circle r="2.828" cy="143.73" cx="302.818" fill="#e6e6e6"/><circle cx="257.917" cy="178.378" r="2.828" fill="#e6e6e6"/><circle r="2.828" cy="178.025" cx="302.863" fill="#e6e6e6"/><circle cx="302.995" cy="214.794" r="2.828" fill="#e6e6e6"/><circle r="2.828" cy="215.855" cx="239.002" fill="#e6e6e6"/><circle cx="238.649" cy="280.555" r="2.828" fill="#e6e6e6"/><path d="M302.995 143.376l.177 71.772" fill="#fff" fill-rule="evenodd" stroke="#e6e6e6" stroke-width="1.5" stroke-dasharray="4.5,1.5"/><path d="M258.624 178.378l44.194-.177" fill="#969696" fill-rule="evenodd" stroke="#e6e6e6" stroke-width="1.5" stroke-dasharray="4.5,1.5"/><path d="M239.495 215.626l63.677-.478" fill="#fff" fill-rule="evenodd" stroke="#e6e6e6" stroke-width="1.5" stroke-dasharray="4.5,1.5"/><path d="M238.745 215.751l-.073 64.897" fill="none" stroke="#e6e6e6" stroke-width="1.5" stroke-dasharray="4.5,1.5"/></g><path d="M51.23 30.254C57.61 18.992 81.148 33.737 91.627 16.6c13.656 15.725 25.97.5 40.103 7.154M170.77 27.499c9.496 4.168-1.452 19.922 11.351 26.45-11.535 12.098-1.187 22.2-9.729 28.616" fill="none" stroke="#ff6161" stroke-width="2.5"/><g style="line-height:125%" font-weight="400" font-size="8.75" font-family="Purisa" letter-spacing="0" word-spacing="0" fill="#4d4d4d"><path style="-inkscape-font-specification:Purisa" d="M45.635 8.829q0 .192-.079.297-.07.114-.13.131-.053.027-.097.027-.114 0-.193-.079-.078-.07-.122-.263-.044-.183-.061-.28l-.035-.358q-.062-.884-.14-.884-.097 0-.307.254-.98 1.155-2.065 1.155-.323 0-.647-.123-1.12-.42-1.12-1.715 0-.56.184-1.067.192-.517.48-.867.298-.35.596-.586.297-.236.569-.332.34-.132.472-.132.228 0 .761.298.543.298.753.578.236.315.359.315h.009q0-.01.009-.01.096-.06.096-2.283 0-2.196.105-2.494.114-.271.341-.271h.236l-.07 3.596q-.026 1.339-.026 2.389 0 1.426.061 2.039.062.612.062.665zm-2.047-3.877q-.517-.34-.718-.34-.175 0-.787.594-.613.595-.727.875-.087.21-.087.761 0 .674.114.875.087.158.42.342.34.184.673.184.595 0 1.505-.876.718-.69.718-.9 0-.29-.368-.77-.358-.482-.743-.745zM47.279 3.754q.122-.105.21-.105.183 0 .262.586.088.577.158 2.231.035.77.035 1.391 0 .622-.053.683-.105.131-.262.131-.22 0-.272-.184-.043-.113-.13-1.767-.088-1.663-.088-2.31 0-.543.14-.656zm-.053-2.057q0-.122.096-.245.105-.122.184-.122.088 0 .236.122.158.114.158.298 0 .131-.079.227-.07.088-.192.088-.14 0-.271-.105-.132-.105-.132-.263zM50.292 6.685q-.132 0-.56-.315-.43-.324-.43-.656 0-.315.447-.866.446-.56 1.076-.718.29-.079.762-.079.2 0 .297.053.096.052.263.236.27.306.27.42 0 .105-.113.105-.14 0-.236-.096-.096-.105-.236-.21-.14-.105-.377-.105-.306 0-.656.166-.35.166-.621.464-.385.411-.385.56 0 .149.227.359.228.2.762.385.84.288 1.137.542.298.254.298.682 0 .403-.14.735-.097.254-.412.57-.315.314-.62.314-.237 0-.613-.079-.377-.07-.57-.166-.157-.079-.288-.306-.131-.236-.131-.42 0-.096.044-.166.052-.079.122-.079.131 0 .245.245.105.219.42.394.324.175.604.175.376 0 .665-.446.289-.455.289-.71 0-.06-.035-.148-.027-.096-.15-.227-.122-.132-.314-.202-.184-.061-.429-.166l-.411-.175q-.158-.07-.201-.07zM55.062 2.66q0-.324-.061-.823-.062-.498-.062-.83 0-.167.01-.22.026-.14.096-.218.078-.088.157-.088.105 0 .149.096.026.062.079.648.052.586.096 1.146.044.56.061.578.01.008.027.008.07 0 .402-.07.341-.078.56-.078.438 0 .438.192 0 .193-.963.429l-.437.105.052 1.479q.044 1.303.166 2.44.123 1.13.123 1.278 0 .272-.201.272-.158 0-.263-.28-.096-.28-.096-.727 0-.323-.026-.656-.027-.341-.097-1.05l-.122-1.47q-.026-.402-.044-.621-.009-.219-.026-.324-.018-.105-.026-.122-.01-.027-.035-.027-.14 0-.674.097-.534.096-.665.096-.254 0-.254-.21 0-.149.315-.254.324-.105.726-.184.403-.087.5-.148.095-.07.095-.464zM60.728 4.384q-.403 0-.858.166-.446.166-.796.341-.35.167-.507.167-.105 0-.105-.088 0-.122.052-.21.053-.087.193-.166.14-.079.262-.131.131-.053.411-.15.28-.104.482-.192.472-.183.796-.183.577 0 .901.63.158.306.184.568.026.254.044 1.444.009.665.026 1.12.017.446.035.569l.017.114q0 .122-.113.262-.105.14-.158.14-.175 0-.271-.551-.096-.56-.105-.56-.026 0-.079.096-.175.289-.708.639-.525.341-.884.341-.219 0-.516-.079-.29-.087-.42-.183-.097-.08-.167-.315-.061-.237-.061-.482 0-.367.192-.63.202-.271.71-.551.55-.324 1.067-.324.21 0 .35.07.14.07.21.149.07.07.113.07.044 0 .167.096.131.088.14.088.035 0 .035-.193 0-1.172-.167-1.627-.157-.455-.472-.455zm.394 2.712q0-.035-.027-.078-.017-.053-.087-.114-.061-.07-.166-.123-.097-.061-.272-.096-.175-.044-.393-.044-.377 0-.665.132-.28.13-.42.332-.14.201-.21.376-.062.167-.062.298 0 .219.035.297.044.079.202.167.192.096.35.096.297 0 .735-.21.446-.219.446-.315 0-.07.262-.333.272-.271.272-.385zM63.534 4.008q0-.298.175-.298.113 0 .166.263.052.253.192 1.522.175 1.418.184 1.435.01.009.07-.166.07-.184.184-.543.175-.577.297-.831.123-.262.438-.717.639-.884.989-.884.227 0 .428.306.272.403.333.796.061.394.087 1.864.018.945.018 1.12 0 .438-.035.639-.026.192-.088.236-.052.053-.192.061-.079 0-.105-.07-.026-.061-.026-.297 0-.131.017-.56.018-.438.018-.735 0-.744-.062-1.453-.052-.717-.131-.918-.044-.114-.14-.237-.096-.122-.184-.122-.184 0-.586.63-.403.621-.691 1.312-.272.63-.368.972-.087.332-.149.91-.096.892-.14.892-.07 0-.2-.149-.097-.096-.132-.411-.035-.324-.096-1.269-.062-.953-.166-1.925-.105-1.006-.105-1.373zM72.267 5.224q0 .148-.07.245-.061.096-.148.096-.167 0-.21-.254-.018-.201-.29-.507-.113-.123-.183-.175-.07-.053-.332-.114-.254-.061-.674-.061-.341 0-.525.122-.175.123-.438.499-.63.892-.63 1.61 0 .367.08.621.078.245.148.333l.254.253q.253.245.385.315.14.062.385.062.76 0 1.662-1.033.473-.525.683-.525.113 0 .113.166 0 .158-.42.674-.41.516-.708.726-.692.5-1.234.5-.394 0-.866-.237-.482-.236-.7-.639-.21-.402-.254-1.172-.026-.298-.026-.473 0-.341.236-.779.245-.472.709-.91.472-.437.813-.533.263-.062.57-.062.664 0 1.163.43.507.42.507.822zM77.792 6.86q.043 0 .043.07 0 .158-.236.507-.227.35-.49.578-.919.814-1.837.814-.35 0-.7-.158-.342-.166-.64-.463-.297-.298-.48-.797-.184-.498-.184-1.111 0-.376.087-.639.175-.533.744-1.128.578-.595 1.085-.595.14 0 .42.026.42.035.586.087.175.053.394.219.28.21.481.543.21.323.21.542 0 .28-.218.429-.22.14-.85.28-.813.184-1.61.227l-.813.044v.35q0 .648.604 1.225.455.438.945.438.376 0 .796-.228.429-.236.726-.516.298-.28.57-.508.27-.236.367-.236zm-1.41-2.135q-.27-.245-.41-.306-.132-.07-.35-.07-.438 0-.657.087-.21.079-.428.333-.665.761-.665 1.015 0 .113.21.113.796 0 2.257-.332.438-.105.438-.368 0-.122-.394-.472zM85.83 4.804q-.105 0-.446.096-.333.087-.534.087-.385 0-.385-.245 0-.096.14-.175.149-.078.569-.2l.709-.21.017-.762q.018-.814.123-1.794.078-.726.14-.919.06-.192.27-.402.176-.175.28-.228Q86.829 0 87.03 0q.149 0 .63.044.367.035.525.105.157.061.359.262.297.298.297.543 0 .175-.14.367-.131.184-.201.184-.105 0-.105-.298 0-.28-.158-.428Q88.088.62 87.65.48q-.289-.087-.446-.087-.376 0-.586.437-.08.175-.15 1.006-.06.823-.06 1.514 0 .499.035.63.043.123.218.123.105 0 .438-.062.332-.06.551-.06.123 0 .201.043.079.035.079.087 0 .15-.753.377l-.752.218-.026 1.392q0 .105-.01.288v.245q0 .657.062 1.015.061.36.122.517.062.157.062.341 0 .262-.245.262-.464 0-.464-2.44 0-1.462-.052-1.515-.01-.008-.044-.008zM92.953 4.489q.149 0 .262.096.114.087.114.149 0 .105-.332.236-.543.219-1.112 1.059-.56.831-.682 1.61-.14.883-.228 1.155-.087.28-.227.28-.123 0-.193-.088-.06-.087-.087-.192-.018-.105-.044-.385-.009-.053-.009-.079-.21-2.205-.21-3.483 0-.455.035-.56.096-.28.245-.28.14 0 .14.237 0 .393.123 1.268.122.875.184.875.078 0 .323-.48.307-.57.814-.99.516-.428.884-.428zM95.266 4.813q.683-.64 1.147-.84.472-.21 1.19-.21 1.085 0 1.356.647.166.385.166.945 0 .927-.411 1.881-.411.945-1.015 1.313-.586.359-1.234.359-.901 0-1.444-.622-.376-.437-.49-.735-.113-.306-.113-.866 0-1.059.848-1.872zm1.41 3.596q.734 0 1.33-1.007.603-1.015.603-2.292 0-.193-.044-.289-.044-.096-.157-.192-.324-.272-.692-.272-.06 0-.14.018-.07.009-.236.035-.166.017-.394.044-.306.043-.49.14-.175.087-.446.341-.516.49-.735.91-.219.411-.219.901 0 .726.447 1.19.455.464 1.172.473zM100.879 4.34q0-.507.14-.507.113 0 .245.796.14.796.192.796.018 0 .061-.105.044-.114.097-.245.052-.14.087-.175.088-.114.236-.429.184-.376.28-.455.097-.087.342-.087.27 0 .595.376.21.245.28.455.078.201.166.735l.14.823.149-.525q.218-.762.63-1.313.41-.551.76-.551.22 0 .403.254.184.245.263.63.079.358.079 1.583 0 .919-.01 1.418-.008.499-.043.726-.026.219-.053.254-.026.044-.096.052-.026.01-.061.01-.08 0-.096-.246-.018-.245-.027-1.374 0-2.756-.42-2.756-.227 0-.595.753-.306.62-.516 1.513-.21.893-.254 1.803-.009.219-.052.297-.035.08-.123.08-.105 0-.14-.185-.026-.175-.061-.945-.061-1.417-.175-1.986-.114-.577-.42-1.041-.228-.324-.333-.324-.122 0-.27.306-.15.298-.49 1.147-.158.41-.158.752 0 .201-.08.446-.07.237-.095 1.182-.018.883-.07 1.006-.035.105-.14.105-.14 0-.193-.42-.044-.42-.044-1.68 0-1.015-.07-1.864-.06-.849-.06-1.085zM113.918 4.34q0-.507.14-.507.114 0 .245.796.14.796.193.796.017 0 .06-.105l.097-.245q.053-.14.088-.175.087-.114.236-.429.184-.376.28-.455.096-.087.341-.087.271 0 .595.376.21.245.28.455.079.201.166.735l.14.823.15-.525q.218-.762.63-1.313.41-.551.76-.551.22 0 .403.254.184.245.262.63.08.358.08 1.583 0 .919-.01 1.418-.009.499-.044.726-.026.219-.052.254-.026.044-.096.052-.027.01-.062.01-.078 0-.096-.246-.017-.245-.026-1.374 0-2.756-.42-2.756-.228 0-.595.753-.306.62-.516 1.513-.21.893-.254 1.803-.01.219-.053.297-.035.08-.122.08-.105 0-.14-.185-.026-.175-.061-.945-.062-1.417-.175-1.986-.114-.577-.42-1.041-.228-.324-.333-.324-.122 0-.271.306-.149.298-.49 1.147-.158.41-.158.752 0 .201-.078.446-.07.237-.097 1.182-.017.883-.07 1.006-.035.105-.14.105-.14 0-.192-.42-.044-.42-.044-1.68 0-1.015-.07-1.864-.061-.849-.061-1.085zM121.38 4.813q.682-.64 1.146-.84.472-.21 1.19-.21 1.085 0 1.356.647.166.385.166.945 0 .927-.41 1.881-.412.945-1.016 1.313-.586.359-1.234.359-.9 0-1.443-.622-.377-.437-.49-.735-.114-.306-.114-.866 0-1.059.849-1.872zm1.408 3.596q.735 0 1.33-1.007.604-1.015.604-2.292 0-.193-.044-.289-.043-.096-.157-.192-.324-.272-.691-.272-.062 0-.14.018-.07.009-.237.035-.166.017-.393.044-.307.043-.49.14-.175.087-.447.341-.516.49-.735.91-.218.411-.218.901 0 .726.446 1.19.455.464 1.172.473zM126.834 4.008q0-.298.175-.298.114 0 .167.263.052.253.192 1.522.175 1.418.184 1.435.009.009.07-.166.07-.184.184-.543.175-.577.297-.831.123-.262.438-.717.638-.884.988-.884.228 0 .43.306.27.403.332.796.06.394.087 1.864.018.945.018 1.12 0 .438-.035.639-.027.192-.088.236-.052.053-.192.061-.08 0-.105-.07-.027-.061-.027-.297 0-.131.018-.56.017-.438.017-.735 0-.744-.061-1.453-.052-.717-.131-.918-.044-.114-.14-.237-.096-.122-.184-.122-.184 0-.586.63-.403.621-.691 1.312-.272.63-.368.972-.087.332-.149.91-.096.892-.14.892-.07 0-.201-.149-.096-.096-.131-.411-.035-.324-.096-1.269-.062-.953-.167-1.925-.105-1.006-.105-1.373zM132.147 3.754q.122-.105.21-.105.184 0 .262.586.088.577.158 2.231.035.77.035 1.391 0 .622-.053.683-.105.131-.262.131-.219 0-.271-.184-.044-.113-.132-1.767-.087-1.663-.087-2.31 0-.543.14-.656zm-.053-2.057q0-.122.097-.245.105-.122.183-.122.088 0 .237.122.157.114.157.298 0 .131-.079.227-.07.088-.192.088-.14 0-.272-.105-.13-.105-.13-.263zM135.624 2.66q0-.324-.062-.823-.06-.498-.06-.83 0-.167.008-.22.026-.14.096-.218.08-.088.158-.088.105 0 .149.096.026.062.078.648.053.586.097 1.146.043.56.06.578.01.008.027.008.07 0 .403-.07.34-.078.56-.078.437 0 .437.192 0 .193-.962.429l-.438.105.053 1.479q.043 1.303.166 2.44.122 1.13.122 1.278 0 .272-.201.272-.157 0-.262-.28-.097-.28-.097-.727 0-.323-.026-.656-.026-.341-.096-1.05-.061-.717-.123-1.47-.026-.402-.043-.621-.01-.219-.027-.324-.017-.105-.026-.122-.009-.027-.035-.027-.14 0-.674.097-.533.096-.665.096-.253 0-.253-.21 0-.149.315-.254.323-.105.726-.184.402-.087.499-.148.096-.07.096-.464zM139.46 4.813q.683-.64 1.147-.84.472-.21 1.19-.21 1.085 0 1.356.647.166.385.166.945 0 .927-.41 1.881-.412.945-1.016 1.313-.586.359-1.234.359-.9 0-1.443-.622-.377-.437-.49-.735-.114-.306-.114-.866 0-1.059.849-1.872zm1.41 3.596q.734 0 1.33-1.007.603-1.015.603-2.292 0-.193-.043-.289-.044-.096-.158-.192-.324-.272-.691-.272-.061 0-.14.018-.07.009-.236.035-.167.017-.394.044-.306.043-.49.14-.175.087-.446.341-.517.49-.735.91-.22.411-.22.901 0 .726.447 1.19.455.464 1.173.473zM147.435 4.489q.15 0 .263.096.114.087.114.149 0 .105-.333.236-.542.219-1.111 1.059-.56.831-.683 1.61-.14.883-.227 1.155-.088.28-.228.28-.122 0-.192-.088-.061-.087-.088-.192-.017-.105-.043-.385-.01-.053-.01-.079-.21-2.205-.21-3.483 0-.455.036-.56.096-.28.245-.28.14 0 .14.237 0 .393.122 1.268.123.875.184.875.079 0 .324-.48.306-.57.813-.99.517-.428.884-.428z"/></g><g style="line-height:125%;text-align:center" font-weight="400" font-size="8.75" font-family="Purisa" letter-spacing="0" word-spacing="0" text-anchor="middle" fill="#4d4d4d"><path style="-inkscape-font-specification:Purisa;text-align:center" d="M191.819 39.039q0-.324-.062-.823-.06-.498-.06-.831 0-.166.008-.219.026-.14.096-.218.08-.088.158-.088.105 0 .149.096.026.062.078.648.053.586.097 1.146.043.56.06.578.01.009.027.009.07 0 .403-.07.34-.08.56-.08.437 0 .437.193t-.962.43l-.438.104.053 1.479q.043 1.304.166 2.441.122 1.129.122 1.278 0 .27-.2.27-.158 0-.263-.28-.097-.28-.097-.725 0-.324-.026-.657-.026-.34-.096-1.05-.061-.717-.123-1.47-.026-.402-.043-.62-.01-.22-.027-.325-.017-.105-.026-.122-.009-.026-.035-.026-.14 0-.674.096-.533.096-.665.096-.253 0-.253-.21 0-.149.315-.254.323-.105.726-.183.402-.088.499-.15.096-.07.096-.463zM197.94 40.868q.148 0 .262.096.114.087.114.149 0 .105-.333.236-.542.219-1.111 1.059-.56.83-.683 1.61-.14.883-.227 1.155-.088.28-.228.28-.122 0-.192-.088-.061-.087-.088-.192-.017-.105-.043-.385-.01-.053-.01-.08-.21-2.204-.21-3.482 0-.455.036-.56.096-.28.245-.28.14 0 .14.237 0 .393.122 1.268.123.875.184.875.079 0 .324-.48.306-.57.814-.99.516-.428.883-.428zM202.082 40.763q-.403 0-.858.166-.446.166-.796.341-.35.166-.508.166-.105 0-.105-.087 0-.123.053-.21.052-.088.192-.166.14-.08.263-.132.131-.052.411-.148.28-.105.481-.193.473-.184.797-.184.577 0 .9.63.158.307.185.57.026.253.043 1.443.01.665.027 1.12.017.446.035.569l.017.113q0 .123-.114.263-.105.14-.157.14-.175 0-.271-.551-.097-.56-.105-.56-.027 0-.08.096-.174.289-.708.639-.525.34-.884.34-.218 0-.516-.078-.289-.087-.42-.184-.096-.078-.166-.315-.061-.236-.061-.48 0-.368.192-.63.201-.272.709-.552.551-.324 1.067-.324.21 0 .35.07.14.07.21.149.07.07.114.07t.166.096q.132.088.14.088.035 0 .035-.193 0-1.172-.166-1.627-.157-.455-.472-.455zm.393 2.712q0-.035-.026-.079-.017-.052-.087-.113-.061-.07-.167-.123-.096-.061-.27-.096-.176-.044-.395-.044-.376 0-.665.131-.28.132-.42.333-.14.201-.21.376-.06.166-.06.298 0 .218.034.297.044.079.201.166.193.097.35.097.298 0 .735-.21.447-.22.447-.315 0-.07.262-.333.271-.271.271-.385zM208.204 41.603q0 .148-.07.245-.062.096-.15.096-.165 0-.21-.254-.017-.201-.288-.507-.114-.123-.184-.176-.07-.052-.332-.113-.254-.062-.674-.062-.341 0-.525.123-.175.122-.437.499-.63.892-.63 1.61 0 .367.078.62.08.246.15.333.078.08.253.254.254.245.385.315.14.061.385.061.761 0 1.662-1.032.473-.525.683-.525.114 0 .114.166 0 .158-.42.674-.412.516-.71.726-.69.499-1.233.499-.394 0-.866-.236-.481-.236-.7-.639-.21-.403-.254-1.173-.026-.297-.026-.472 0-.341.236-.779.245-.472.709-.91.472-.437.814-.533.262-.062.568-.062.665 0 1.164.429.508.42.508.822zM209.204 38.601v-.052-.079-.079q.01-.052.018-.078.017-.035.035-.062.026-.035.061-.052.035-.018.087-.018.167 0 .245.202.053.122.114.752.07.63.14 1.418.079.787.131 1.12l.07.507.998-.997q.534-.534.752-.718.22-.192.324-.192.062 0 .131.087.08.088.08.175 0 .061-.036.105-.026.035-.079.07-.043.026-.148.14-.105.114-.228.28-.359.543-1.382 1.365-.35.271-.35.455 0 .123.157.201l.936.438q.648.306 1.077.612.428.307.428.473 0 .184-.175.184-.157 0-.463-.21-.307-.22-.385-.22-.105 0-.105-.07 0-.095-1.068-.49l-.464-.174.062.726q.026.289.026.455 0 .368-.184.368-.28 0-.359-.385-.07-.394-.13-1.987-.053-1.408-.132-1.837-.07-.394-.131-1.173-.053-.787-.053-1.26zM214.888 43.064q-.132 0-.56-.315-.43-.324-.43-.656 0-.315.447-.867.446-.56 1.076-.717.29-.079.762-.079.2 0 .297.053.096.052.263.236.27.306.27.42 0 .105-.113.105-.14 0-.236-.096-.096-.105-.236-.21-.14-.105-.377-.105-.306 0-.656.166-.35.166-.621.464-.385.41-.385.56 0 .148.227.358.228.202.762.385.84.29 1.137.543.298.254.298.682 0 .403-.14.735-.097.254-.412.569-.315.315-.62.315-.237 0-.613-.079-.377-.07-.57-.166-.157-.079-.288-.306-.131-.236-.131-.42 0-.096.044-.166.052-.08.122-.08.131 0 .245.246.105.219.42.394.324.175.604.175.376 0 .665-.447.289-.455.289-.708 0-.062-.035-.15-.027-.095-.15-.227-.122-.13-.314-.2-.184-.062-.429-.167l-.411-.175q-.158-.07-.201-.07zM224.098 44.368q0-.7-.175-2.818-.166-2.126-.166-2.931 0-.464.053-.56.105-.184.2-.184.158 0 .202.306.053.307.14 1.549.07.998.123 1.671l.078 1.033.158-.341q.175-.394.857-1.033.683-.639.92-.639.218 0 .48.245.263.245.342.525.07.237.07 2.127 0 1.365-.027 1.618-.026.245-.166.245t-.184-.253q-.035-.254-.07-1.462-.052-1.688-.21-2.161l-.14-.437-.507.472q-.403.385-.744.875-.332.49-.455.866-.079.272-.131.867-.053.595-.131.98-.07.385-.21.385-.062 0-.15-.07-.157-.132-.157-.875zM232.937 43.239q.044 0 .044.07 0 .157-.237.507-.227.35-.49.578-.918.814-1.837.814-.35 0-.7-.158-.341-.166-.639-.464-.297-.297-.481-.796-.184-.499-.184-1.111 0-.376.088-.639.175-.534.743-1.129.578-.595 1.085-.595.14 0 .42.027.42.035.587.087.175.053.393.219.28.21.482.542.21.324.21.543 0 .28-.22.429-.218.14-.848.28-.814.183-1.61.227l-.814.044v.35q0 .647.604 1.225.455.437.945.437.376 0 .796-.227.43-.236.727-.516t.568-.508q.272-.236.368-.236zm-1.409-2.135q-.271-.245-.411-.306-.131-.07-.35-.07-.438 0-.656.087-.21.079-.43.333-.664.76-.664 1.015 0 .113.21.113.796 0 2.257-.332.438-.105.438-.368 0-.122-.394-.472zM236.535 40.763q-.403 0-.858.166-.446.166-.796.341-.35.166-.507.166-.105 0-.105-.087 0-.123.052-.21.053-.088.193-.166.14-.08.262-.132.131-.052.411-.148.28-.105.482-.193.472-.184.796-.184.577 0 .901.63.158.307.184.57.026.253.043 1.443.01.665.027 1.12.017.446.035.569l.017.113q0 .123-.113.263-.105.14-.158.14-.175 0-.271-.551-.096-.56-.105-.56-.027 0-.079.096-.175.289-.709.639-.525.34-.884.34-.218 0-.516-.078-.289-.087-.42-.184-.096-.078-.166-.315-.061-.236-.061-.48 0-.368.192-.63.201-.272.709-.552.551-.324 1.067-.324.21 0 .35.07.14.07.21.149.07.07.114.07t.166.096q.132.088.14.088.035 0 .035-.193 0-1.172-.166-1.627-.157-.455-.472-.455zm.394 2.712q0-.035-.027-.079-.017-.052-.087-.113-.061-.07-.167-.123-.096-.061-.27-.096-.176-.044-.395-.044-.376 0-.665.131-.28.132-.42.333-.14.201-.21.376-.06.166-.06.298 0 .218.034.297.044.079.201.166.193.097.35.097.298 0 .735-.21.447-.22.447-.315 0-.07.262-.333.271-.271.271-.385zM243.847 45.208q0 .192-.08.297-.07.114-.13.131-.053.026-.097.026-.113 0-.192-.078-.079-.07-.123-.263-.043-.183-.06-.28l-.036-.358q-.061-.884-.14-.884-.096 0-.306.254-.98 1.155-2.065 1.155-.324 0-.648-.123-1.12-.42-1.12-1.715 0-.56.184-1.067.193-.517.481-.867.298-.35.595-.586.298-.236.57-.332.34-.132.472-.132.227 0 .76.298.543.297.753.577.237.315.36.315h.008q0-.009.01-.009.095-.061.095-2.283 0-2.197.105-2.494.114-.271.342-.271h.236l-.07 3.596q-.027 1.339-.027 2.389 0 1.426.062 2.038.061.613.061.665zm-2.048-3.877q-.516-.341-.717-.341-.175 0-.788.595-.612.595-.726.875-.088.21-.088.761 0 .674.114.875.088.158.42.342.341.183.674.183.595 0 1.505-.875.717-.691.717-.901 0-.289-.367-.77-.359-.481-.744-.744zM215.739 56.451q-.245 0-.525-.236-.28-.227-.28-.726 0-.534.368-1.278l.385-.796-.158-.481q-.236-.683-.236-1.068 0-.306.149-.516.148-.219.48-.42.403-.236.587-.236l.105.026q.105.018.184.018.096 0 .201.262.114.254.114.446 0 .254-.35 1.007-.35.752-.35.883 0 .175.437.578.438.402.639.402.14 0 .315-.21t.315-.455q.149-.253.333-.463.192-.21.358-.21.096 0 .193.087.096.088.096.166 0 .132-.481.744-.473.613-.473.735 0 .053.079.053t.263.14q.183.14.35.14.245 0 .507.166.271.166.271.315 0 .236-.306.236-.49 0-1.155-.49l-.332-.236-.5.437q-.305.272-.84.622-.533.358-.743.358zm.219-4.418q0 .568.105.568.096 0 .271-.192.219-.245.219-.709 0-.464-.105-.464-.07 0-.263.14-.14.088-.183.22-.044.122-.044.437zm-.49 3.403q0 .175.061.29.061.113.166.113.132 0 .692-.341.568-.342.717-.368.193-.035.193-.131t-.184-.228q-.184-.13-.464-.315-.271-.183-.402-.34l-.184-.228-.298.577q-.297.569-.297.971zM191.538 63.915q0-1.636.245-1.636.044 0 .088.017.052.018.122.132.07.105.07.297 0 .088-.017.298-.018.2-.018.455 0 .708.08 1.723.078 1.015.165 1.33.088.342.298.342.201 0 .612-.36.508-.445.972-1.39.472-.945.656-1.89.175-.928.289-.99.087-.06.183-.06.21 0 .21.244 0 .132-.13 1.033-.123.892-.123 1.286 0 .551.218 1.374.228.814.228.927 0 .088-.07.14-.07.053-.123.062-.043.017-.07.017-.157 0-.315-.446-.148-.446-.27-.892-.115-.447-.202-.447-.018 0-.035.01-.018.008-.044.034-.017.018-.035.044-.017.026-.052.07-.027.044-.053.079-.017.035-.061.105l-.07.114q-.385.603-.858 1.006-.463.402-.787.402-.368 0-.551-.166-.184-.157-.298-.577-.105-.42-.192-1.33-.062-.578-.062-1.357zM196.941 62.891q.245-.218.245-.376 0-.157.096-.376.105-.228.298-.228.122 0 .21.14.096.132.201.132.079 0 .648-.132.568-.14.997-.14.359 0 .796.097.91.21.91 1.128 0 .7-.542 1.864-.359.77-.875 1.19-.516.411-1.103.411-.166 0-.253-.017l-.403-.062.096.473q.315 1.487.315 1.864 0 .175-.06.227-.062.061-.21.061-.158 0-.228-.078-.062-.07-.132-.307-.34-1.225-.55-3.657-.097-1.199-.167-1.461-.061-.272-.254-.272-.28 0-.28-.166 0-.096.245-.315zm1.304 2.905q.131 0 .306.114.175.105.298.105.35 0 .805-.446.455-.455.77-1.094.323-.639.323-1.137 0-.272-.122-.49-.114-.22-.201-.245-.149-.062-.517-.062-.813 0-1.443.202l-.587.192.018.56q.017.56.096 1.426.044.517.096.692.053.175.158.183zM202.666 62.891q.245-.218.245-.376 0-.157.097-.376.105-.228.297-.228.123 0 .21.14.096.132.201.132.079 0 .648-.132.569-.14.997-.14.359 0 .797.097.91.21.91 1.128 0 .7-.543 1.864-.359.77-.875 1.19-.516.411-1.102.411-.167 0-.254-.017l-.403-.062.096.473q.315 1.487.315 1.864 0 .175-.06.227-.062.061-.21.061-.158 0-.228-.078-.062-.07-.132-.307-.34-1.225-.55-3.657-.097-1.199-.167-1.461-.061-.272-.254-.272-.28 0-.28-.166 0-.096.245-.315zm1.304 2.905q.131 0 .306.114.175.105.298.105.35 0 .805-.446.455-.455.77-1.094.324-.639.324-1.137 0-.272-.123-.49-.114-.22-.201-.245-.149-.062-.516-.062-.814 0-1.444.202l-.586.192.017.56q.018.56.096 1.426.044.517.096.692.053.175.158.183zM212.591 65.114q.044 0 .044.07 0 .157-.236.507-.228.35-.49.578-.919.814-1.838.814-.35 0-.7-.158-.34-.166-.638-.464-.298-.297-.482-.796-.183-.499-.183-1.111 0-.376.087-.639.175-.534.744-1.129.577-.595 1.085-.595.14 0 .42.027.42.035.586.087.175.053.394.219.28.21.481.542.21.324.21.543 0 .28-.219.429-.218.14-.848.28-.814.183-1.61.227l-.814.044v.35q0 .647.604 1.225.455.437.945.437.376 0 .796-.227.429-.236.726-.516.298-.28.569-.508.271-.236.367-.236zm-1.408-2.135q-.272-.245-.412-.306-.13-.07-.35-.07-.437 0-.656.087-.21.079-.429.333-.665.76-.665 1.015 0 .113.21.113.797 0 2.258-.332.437-.105.437-.368 0-.122-.393-.472zM216.644 62.743q.15 0 .263.096.114.087.114.149 0 .105-.333.236-.542.219-1.111 1.059-.56.83-.683 1.61-.14.883-.227 1.155-.088.28-.228.28-.122 0-.192-.088-.061-.087-.088-.192-.017-.105-.043-.385-.01-.053-.01-.08-.21-2.204-.21-3.482 0-.455.036-.56.096-.28.245-.28.14 0 .14.237 0 .393.122 1.268.123.875.184.875.079 0 .324-.48.306-.57.813-.99.517-.428.884-.428zM227.423 62.253q.123 0 .28.078.166.07.35.228.184.148.306.463.123.307.123.718 0 .612-.28 1.277-.271.657-.761 1.147-.368.367-.972.7-.595.332-.883.332-.289 0-.648-.201-.359-.201-.402-.376-.027-.096-.096-1.768-.07-1.68-.184-2.38-.236-1.487-.236-2.38 0-.324.122-.446.131-.131.21-.131.131 0 .175.323.053.324.105 1.068.053.744.14 1.304.114.735.158 1.207l.043.481.683-.673q.682-.683 1.146-.832.446-.14.621-.14zm.551 1.53q0-.97-.577-.97-.158 0-.429.052-.184.035-.612.42-.429.376-.779.814-.219.28-.35.744-.123.463-.123.91 0 .498.15.735.148.227.332.227.096 0 .437-.105.385-.122.805-.49.429-.367.744-.849.402-.62.402-1.487zM232.168 62.638q-.402 0-.857.166-.446.166-.796.341-.35.166-.508.166-.105 0-.105-.087 0-.123.053-.21.052-.088.192-.166.14-.08.263-.132.13-.052.41-.148.28-.105.482-.193.473-.184.796-.184.578 0 .902.63.157.307.183.57.027.253.044 1.443.01.665.026 1.12.018.446.035.569l.018.113q0 .123-.114.263-.105.14-.157.14-.175 0-.272-.551-.096-.56-.105-.56-.026 0-.078.096-.175.288-.71.638-.524.342-.883.342-.219 0-.516-.079-.289-.087-.42-.184-.096-.079-.166-.315-.062-.236-.062-.481 0-.367.193-.63.201-.271.709-.551.55-.324 1.067-.324.21 0 .35.07.14.07.21.149.07.07.114.07t.166.096q.131.087.14.087.035 0 .035-.192 0-1.173-.166-1.627-.158-.456-.473-.456zm.394 2.712q0-.035-.026-.079-.018-.052-.088-.113-.061-.07-.166-.123-.096-.061-.271-.096-.175-.044-.394-.044-.376 0-.665.131-.28.132-.42.333-.14.201-.21.376-.061.166-.061.298 0 .218.035.297.044.079.201.166.193.097.35.097.298 0 .735-.21.446-.22.446-.315 0-.07.263-.333.271-.271.271-.385zM238.29 63.478q0 .148-.07.245-.061.096-.149.096-.166 0-.21-.254-.017-.201-.288-.507-.114-.123-.184-.176-.07-.052-.333-.113-.253-.062-.673-.062-.342 0-.525.123-.175.122-.438.499-.63.892-.63 1.61 0 .367.079.621.079.245.149.332l.253.254q.254.245.385.315.14.061.385.061.762 0 1.663-1.032.472-.525.682-.525.114 0 .114.166 0 .158-.42.674-.411.516-.709.726-.69.499-1.233.499-.394 0-.867-.236-.48-.237-.7-.639-.21-.403-.253-1.173-.027-.297-.027-.472 0-.341.237-.779.245-.472.708-.91.473-.437.814-.534.263-.06.569-.06.665 0 1.164.428.507.42.507.822zM239.29 60.476v-.052-.079-.079q.01-.052.018-.078.018-.035.035-.062.027-.035.062-.052.035-.018.087-.018.166 0 .245.202.053.122.114.752.07.63.14 1.418.079.787.131 1.12l.07.507.998-.997q.533-.534.752-.718.219-.192.324-.192.061 0 .131.087.079.088.079.175 0 .061-.035.105-.026.035-.079.07-.044.026-.149.14-.105.114-.227.28-.359.543-1.383 1.365-.35.271-.35.455 0 .123.158.201l.936.438q.648.306 1.076.612.429.307.429.473 0 .184-.175.184-.157 0-.464-.21-.306-.22-.385-.22-.105 0-.105-.07 0-.095-1.067-.49l-.464-.174.061.726q.027.289.027.455 0 .368-.184.368-.28 0-.359-.385-.07-.394-.131-1.987-.053-1.408-.131-1.837-.07-.394-.132-1.173-.052-.787-.052-1.26z"/></g></svg>