<svg xmlns="http://www.w3.org/2000/svg" viewBox="0 0 268.69869 224.23262" height="239.181" width="286.612"><defs><marker orient="auto" id="c" overflow="visible"><path d="M1.96 0a2 2 0 1 1-4.001-.001A2 2 0 0 1 1.96 0z" fill="#4d4d4d" fill-rule="evenodd" stroke="#4d4d4d" stroke-width=".4pt"/></marker><marker id="b" orient="auto" overflow="visible"><path d="M1.96 0a2 2 0 1 1-4.001-.001A2 2 0 0 1 1.96 0z" fill="#4d4d4d" fill-rule="evenodd" stroke="#4d4d4d" stroke-width=".4pt"/></marker><marker id="a" orient="auto" overflow="visible"><path d="M1.96 0a2 2 0 1 1-4.001-.001A2 2 0 0 1 1.96 0z" fill="#4d4d4d" fill-rule="evenodd" stroke="#4d4d4d" stroke-width=".4pt"/></marker></defs><g transform="translate(-148.649 -64.72)" fill="none"><rect ry="0" y="-.52" x="-1.414" height="411.536" width="637.81"/><path d="M286.489 135.753c-10.13 13.463-6.382 25.705-2.23 36.185" stroke="#ff6161" stroke-width="2.5"/></g><path d="M52.878 36.585l-6.72 1.06c-1.907.99-1.91 3.02-1.942 4.95l4.507 28.284-10.52 47.022-14.333-2.107-3.924 8.222-18.62-.353c-2.03 2.067-1.486 4.05 0 6h7.5v93.75h43.25v-93.5l58.077-.698c.314-1.707 1.197-3.37-1.414-5.302l.354-2.477-26.784-3.27-.441 5.747H63.66l-.885-3.537-15.113-1.237 2.738-37.3 4.067 24.042c.63 1.904 1.47 3.598 4.42 3.182l5.302-1.06-11.312-71.418zm32.644 84.765l20.492 2.938-20.5.25.008-3.188z" fill="#999" fill-rule="evenodd"/><path d="M96.09 218.161c.356 1.414.018 4.661-2.263 4.753-10.54.423-26.288.088-33 0-1.167-.016-1.12-3.173 0-3.5 8.679-2.54 14.78-3.429 21-10.25 2.033.596.872-34.611-.427-56.614-.325-5.497 6.661-8.054 10.588-8.902 14.485-3.124 45.316-6.073 46.089-8.984 1.15-4.337 1.9-18.854-.073-27.97-1.935-8.94-6.503-19.41-.24-29.977 1.908-3.22 7.563-8.303 7.563-8.303s1.28-5.737-.5-7.5c-2.076-2.056-5.778-.426-8.75-.5-2.196-.555-2.75-2.36-2.819-4.157-.064-1.676-.369-6-.369-6l-4.062-.156 4-7.437s-.13-8.159 1.56-10.647c2.996-4.408 7.002-6.823 13.19-7.603 12.072-1.523 19.395 6.735 18.5 17.5-.315 3.788-5 10.25-5 10.25.134-.134-1.073 13.112 3.25 15.875 3.336 2.132 5.849 16.497 4.25 26.375-2.866 17.706-2.615 34.72.375 51.375.86 4.794-3.32 10.266-8.375 11.875-12.764 4.06-63.75.894-63.75 2.937 1.828 4.302 2.15 10.178 1.875 15.313-.403 7.518-4.729 14.48-5.125 22-.358 6.791 1.06 14.462 2.514 20.247z" fill="#4d4d4d" fill-rule="evenodd"/><path d="M153.64 68.934c-3.795.011-9.125 2.923-9.193 6.718-.176 9.89 1.36 32.536 1.06 32.527l-31.076 2.338c-1.808-.17-7.204.099-13.487.907-4.586 1.73-6.293 2.995-11.798 5.928 3.762.502 10.585-.072 15.985-.502 3.992 3.071 7.26.529 10.127-.135 6.09-1.41 30.317 2.525 37.385 3.534 4.583.655 6.38-2.813 7.36-5.706 3.933-11.606 3.85-32.42 3.92-38.184.052-4.345-6.056-7.437-10.283-7.425z" fill="#999" fill-rule="evenodd"/><g transform="translate(-148.649 -64.72)" fill="#999"><path d="M323.721 151.752c-10.27 8.998-8.011 24.613-9.16 37.279-.812 8.96.67 13.502 2.414 17.602.525 1.234 3.284 1.305 4.018.183 2.42-3.697 3.475-21.12 3.67-21.12 0 0 2.242 31.016 2.75 42.75.401 9.265-17.222 9.195-17.375 8.187 3.12-2.112 7.99-5.665 7.062-9.5-.622-2.572-4.479-3.451-7.125-3.5-16.518-.305-20.83 1.218-50.5 2.75-3.216.166-7.347 1.54-7.454 6.15-.07 3.042 2.068 4.724 4.204 4.85 6.044.357 19.471-1.94 19.563-.75l-.063 7.15c1.652 2.4 2.731 4.142 2.75 4.91v19.44l-28 9c-.599.946-.483 1.554.5 1.75l28.708-5.602.588 5.94c1.04.554 2.156.9 3.779.176l.675-6.014 27.163 5.751c3.372 1.034 3.498-.446 1.836-1.53-3.653-2.382-27.652-8.608-27.499-9.221l-.25-19.25c.078-1.667 1.833-3.333 3.25-5 .016-1.333.007-2.667.25-4 .24-1.857 24.666.69 34.25-1.5 2.91-.665 7.333-5.301 7-10.5-.938-14.644-3.611-32.869-4-49.5l-3.192-.881c-.105.088 5.838-15.613 4.53-24.515-.401-2.728-2.963-2.693-4.342-1.485z" fill-rule="evenodd"/><circle r="4.773" cy="284.179" cx="282.136"/><circle r="4.596" cy="283.707" cx="313.488"/><circle r="4.685" cy="283.305" cx="251.465"/><path d="M263.044 185.803c4.074-2.689 34.38 1.025 43.31 1.06 1.99.009 1.767 2.354.884 2.652-2.503.845-18.385.354-18.385.354l3.89 38.36-11.491.53 3.358-38.714s-13.02-1.954-21.566-1.149c-1.406.133-.861-2.525 0-3.093z" fill-rule="evenodd"/></g><g transform="translate(-148.649 -64.72)"><circle r="2.828" cy="143.73" cx="302.818" fill="#e6e6e6"/><circle cx="257.917" cy="178.378" r="2.828" fill="#e6e6e6"/><circle r="2.828" cy="178.025" cx="302.863" fill="#e6e6e6"/><circle cx="302.995" cy="214.794" r="2.828" fill="#e6e6e6"/><circle r="2.828" cy="215.855" cx="239.002" fill="#e6e6e6"/><circle cx="238.649" cy="280.555" r="2.828" fill="#e6e6e6"/><path d="M302.995 143.376l.177 71.772" fill="#fff" fill-rule="evenodd" stroke="#e6e6e6" stroke-width="1.5" stroke-dasharray="4.5,1.5"/><path d="M258.624 178.378l44.194-.177" fill="#969696" fill-rule="evenodd" stroke="#e6e6e6" stroke-width="1.5" stroke-dasharray="4.5,1.5"/><path d="M239.495 215.626l63.677-.478" fill="#fff" fill-rule="evenodd" stroke="#e6e6e6" stroke-width="1.5" stroke-dasharray="4.5,1.5"/><path d="M238.745 215.751l-.073 64.897" fill="none" stroke="#e6e6e6" stroke-width="1.5" stroke-dasharray="4.5,1.5"/></g><path d="M51.23 30.254C57.61 18.992 81.148 33.737 91.627 16.6c13.656 15.725 25.97.5 40.103 7.154M181.104 27.75c9.495 4.168-1.453 19.921 11.35 26.45-11.535 12.097-1.187 22.2-9.729 28.616" fill="none" stroke="#ff6161" stroke-width="2.5"/><g style="line-height:125%" font-weight="400" font-size="8.75" font-family="Purisa" letter-spacing="0" word-spacing="0" fill="#4d4d4d"><path style="-inkscape-font-specification:Purisa" d="M45.635 8.829q0 .192-.079.297-.07.114-.13.131-.053.027-.097.027-.114 0-.193-.079-.078-.07-.122-.263-.044-.183-.061-.28l-.035-.358q-.062-.884-.14-.884-.097 0-.307.254-.98 1.155-2.065 1.155-.323 0-.647-.123-1.12-.42-1.12-1.715 0-.56.184-1.067.192-.517.48-.867.298-.35.596-.586.297-.236.569-.332.34-.132.472-.132.228 0 .761.298.543.297.753.577.236.315.359.315h.009q0-.008.009-.008.096-.062.096-2.284 0-2.196.105-2.494.114-.271.341-.271h.236l-.07 3.596q-.026 1.339-.026 2.389 0 1.426.061 2.039.062.612.062.665zm-2.047-3.877q-.517-.34-.718-.34-.175 0-.787.594-.613.595-.727.875-.087.21-.087.761 0 .674.114.875.087.158.42.342.34.183.673.183.595 0 1.505-.875.718-.69.718-.9 0-.29-.368-.77-.358-.482-.743-.745zM47.279 3.754q.122-.105.21-.105.183 0 .262.586.088.577.158 2.231.035.77.035 1.391 0 .622-.053.683-.105.131-.262.131-.22 0-.272-.184-.043-.113-.13-1.767-.088-1.663-.088-2.31 0-.543.14-.656zm-.053-2.057q0-.122.096-.245.105-.122.184-.122.088 0 .236.122.158.114.158.298 0 .131-.079.227-.07.088-.192.088-.14 0-.271-.105-.132-.105-.132-.263zM50.292 6.685q-.132 0-.56-.315-.43-.324-.43-.656 0-.315.447-.867.446-.56 1.076-.717.29-.079.762-.079.2 0 .297.053.096.052.263.236.27.306.27.42 0 .105-.113.105-.14 0-.236-.096-.096-.105-.236-.21-.14-.105-.377-.105-.306 0-.656.166-.35.166-.621.464-.385.411-.385.56 0 .148.227.358.228.202.762.385.84.29 1.137.543.298.254.298.682 0 .403-.14.735-.097.254-.412.57-.315.314-.62.314-.237 0-.613-.079-.377-.07-.57-.166-.157-.079-.288-.306-.131-.236-.131-.42 0-.096.044-.166.052-.079.122-.079.131 0 .245.245.105.219.42.394.324.175.604.175.376 0 .665-.447.289-.455.289-.708 0-.062-.035-.149-.027-.096-.15-.228-.122-.13-.314-.2-.184-.062-.429-.167l-.411-.175q-.158-.07-.201-.07zM55.062 2.66q0-.324-.061-.823-.062-.498-.062-.83 0-.167.01-.22.026-.14.096-.218.078-.088.157-.088.105 0 .149.096.026.062.079.648.052.586.096 1.146.044.56.061.578.01.008.027.008.07 0 .402-.07.341-.078.56-.078.438 0 .438.192 0 .193-.963.429l-.437.105.052 1.479q.044 1.303.166 2.44.123 1.13.123 1.278 0 .272-.201.272-.158 0-.263-.28-.096-.28-.096-.727 0-.323-.026-.656-.027-.341-.097-1.05l-.122-1.47q-.026-.402-.044-.621-.009-.219-.026-.324-.018-.105-.026-.122-.01-.027-.035-.027-.14 0-.674.097-.534.096-.665.096-.254 0-.254-.21 0-.149.315-.254.324-.105.726-.184.403-.087.5-.148.095-.07.095-.464zM60.728 4.384q-.403 0-.858.166-.446.166-.796.341-.35.166-.507.166-.105 0-.105-.087 0-.123.052-.21.053-.088.193-.166.14-.079.262-.132.131-.052.411-.148.28-.105.482-.193.472-.184.796-.184.577 0 .901.63.158.307.184.57.026.253.044 1.443.009.665.026 1.12.017.446.035.569l.017.113q0 .123-.113.263-.105.14-.158.14-.175 0-.271-.551-.096-.56-.105-.56-.026 0-.079.096-.175.289-.708.639-.525.341-.884.341-.219 0-.516-.079-.29-.087-.42-.184-.097-.078-.167-.315-.061-.236-.061-.48 0-.368.192-.63.202-.272.71-.552.55-.324 1.067-.324.21 0 .35.07.14.07.21.149.07.07.113.07.044 0 .167.096.131.088.14.088.035 0 .035-.193 0-1.172-.167-1.627-.157-.455-.472-.455zm.394 2.712q0-.035-.027-.079-.017-.052-.087-.113-.061-.07-.166-.123-.097-.061-.272-.096-.175-.044-.393-.044-.377 0-.665.131-.28.132-.42.333-.14.201-.21.376-.062.166-.062.298 0 .218.035.297.044.079.202.166.192.097.35.097.297 0 .735-.21.446-.219.446-.315 0-.07.262-.333.272-.271.272-.385zM63.534 4.007q0-.297.175-.297.113 0 .166.262.052.254.192 1.523.175 1.417.184 1.435.01.009.07-.166.07-.184.184-.543.175-.577.297-.831.123-.263.438-.718.639-.883.989-.883.227 0 .428.306.272.402.333.796t.087 1.864q.018.945.018 1.12 0 .437-.035.639-.026.192-.088.236-.052.052-.192.061-.079 0-.105-.07-.026-.061-.026-.297 0-.132.017-.56.018-.438.018-.735 0-.744-.062-1.453-.052-.717-.131-.919-.044-.113-.14-.236-.096-.122-.184-.122-.184 0-.586.63-.403.621-.691 1.312-.272.63-.368.971-.087.333-.149.91-.096.893-.14.893-.07 0-.2-.149-.097-.096-.132-.411-.035-.324-.096-1.269-.062-.954-.166-1.925-.105-1.006-.105-1.374zM72.267 5.224q0 .148-.07.245-.061.096-.148.096-.167 0-.21-.254-.018-.201-.29-.507-.113-.123-.183-.175-.07-.053-.332-.114-.254-.061-.674-.061-.341 0-.525.122-.175.123-.438.499-.63.892-.63 1.61 0 .367.08.621.078.245.148.333l.254.253q.253.245.385.315.14.062.385.062.76 0 1.662-1.033.473-.525.683-.525.113 0 .113.166 0 .158-.42.674-.41.516-.708.726-.692.5-1.234.5-.394 0-.866-.237-.482-.236-.7-.639-.21-.402-.254-1.172-.026-.298-.026-.473 0-.341.236-.779.245-.472.709-.91.472-.437.813-.533.263-.062.57-.062.664 0 1.163.43.507.42.507.822zM77.792 6.86q.043 0 .043.07 0 .157-.236.507-.227.35-.49.578-.919.814-1.837.814-.35 0-.7-.158-.342-.166-.64-.464-.297-.297-.48-.796-.184-.499-.184-1.111 0-.376.087-.639.175-.534.744-1.129.578-.595 1.085-.595.14 0 .42.027.42.035.586.087.175.053.394.219.28.21.481.542.21.324.21.543 0 .28-.218.429-.22.14-.85.28-.813.183-1.61.227l-.813.044v.35q0 .647.604 1.225.455.437.945.437.376 0 .796-.227.429-.236.726-.516.298-.28.57-.508.27-.236.367-.236zm-1.41-2.135q-.27-.245-.41-.306-.132-.07-.35-.07-.438 0-.657.087-.21.079-.428.333-.665.761-.665 1.015 0 .113.21.113.796 0 2.257-.332.438-.105.438-.368 0-.122-.394-.472zM85.83 4.804q-.105 0-.446.096-.333.087-.534.087-.385 0-.385-.245 0-.096.14-.175.149-.078.569-.2l.709-.21.017-.762q.018-.814.123-1.794.078-.726.14-.919.06-.192.27-.402.176-.175.28-.228Q86.829 0 87.03 0q.149 0 .63.044.367.035.525.105.157.061.359.262.297.298.297.543 0 .175-.14.367-.131.184-.201.184-.105 0-.105-.298 0-.28-.158-.428Q88.088.62 87.65.48q-.289-.087-.446-.087-.376 0-.586.437-.08.175-.15 1.006-.06.823-.06 1.514 0 .499.035.63.043.123.218.123.105 0 .438-.062.332-.06.551-.06.123 0 .201.043.079.035.079.087 0 .15-.753.377l-.752.218-.026 1.392q0 .105-.01.288v.245q0 .657.062 1.015.061.36.122.517.062.157.062.341 0 .262-.245.262-.464 0-.464-2.44 0-1.462-.052-1.515-.01-.008-.044-.008zM92.953 4.489q.149 0 .262.096.114.087.114.149 0 .105-.332.236-.543.219-1.112 1.059-.56.831-.682 1.61-.14.883-.228 1.155-.087.28-.227.28-.123 0-.193-.088-.06-.087-.087-.192-.018-.105-.044-.385-.009-.053-.009-.079-.21-2.205-.21-3.483 0-.455.035-.56.096-.28.245-.28.14 0 .14.237 0 .393.123 1.268.122.875.184.875.078 0 .323-.48.307-.57.814-.99.516-.428.884-.428zM95.266 4.812q.683-.638 1.147-.84.472-.21 1.19-.21 1.085 0 1.356.648.166.385.166.945 0 .927-.411 1.881-.411.945-1.015 1.313-.586.358-1.234.358-.901 0-1.444-.62-.376-.438-.49-.736-.113-.306-.113-.866 0-1.059.848-1.873zm1.41 3.597q.734 0 1.33-1.007.603-1.015.603-2.292 0-.193-.044-.289-.044-.096-.157-.192-.324-.272-.692-.272-.06 0-.14.018-.07.009-.236.035-.166.017-.394.044-.306.043-.49.14-.175.087-.446.341-.516.49-.735.91-.219.411-.219.901 0 .726.447 1.19.455.464 1.172.473zM100.879 4.34q0-.508.14-.508.113 0 .245.797.14.796.192.796.018 0 .061-.105.044-.114.097-.245.052-.14.087-.175.088-.114.236-.429.184-.376.28-.455.097-.087.342-.087.27 0 .595.376.21.245.28.455.078.201.166.735l.14.822.149-.525q.218-.76.63-1.312.41-.551.76-.551.22 0 .403.253.184.245.263.63.079.36.079 1.584 0 .919-.01 1.418-.008.498-.043.726-.026.219-.053.254-.026.043-.096.052-.026.009-.061.009-.08 0-.096-.245-.018-.245-.027-1.374 0-2.756-.42-2.756-.227 0-.595.753-.306.62-.516 1.513-.21.893-.254 1.803-.009.219-.052.297-.035.079-.123.079-.105 0-.14-.184-.026-.175-.061-.945-.061-1.417-.175-1.986-.114-.577-.42-1.041-.228-.324-.333-.324-.122 0-.27.306-.15.298-.49 1.147-.158.41-.158.752 0 .201-.08.446-.07.237-.095 1.182-.018.883-.07 1.006-.035.105-.14.105-.14 0-.193-.42-.044-.42-.044-1.68 0-1.015-.07-1.864-.06-.849-.06-1.085zM113.918 4.34q0-.508.14-.508.114 0 .245.797.14.796.193.796.017 0 .06-.105l.097-.245q.053-.14.088-.175.087-.114.236-.429.184-.376.28-.455.096-.087.341-.087.271 0 .595.376.21.245.28.455.079.201.166.735l.14.822.15-.525q.218-.76.63-1.312.41-.551.76-.551.22 0 .403.253.184.245.262.63.08.36.08 1.584 0 .919-.01 1.418-.009.498-.044.726-.026.219-.052.254-.026.043-.096.052-.027.009-.062.009-.078 0-.096-.245-.017-.245-.026-1.374 0-2.756-.42-2.756-.228 0-.595.753-.306.62-.516 1.513-.21.893-.254 1.803-.01.219-.053.297-.035.079-.122.079-.105 0-.14-.184-.026-.175-.061-.945-.062-1.417-.175-1.986-.114-.577-.42-1.041-.228-.324-.333-.324-.122 0-.271.306-.149.298-.49 1.147-.158.41-.158.752 0 .201-.078.446-.07.237-.097 1.182-.017.883-.07 1.006-.035.105-.14.105-.14 0-.192-.42-.044-.42-.044-1.68 0-1.015-.07-1.864-.061-.849-.061-1.085zM121.38 4.812q.682-.638 1.146-.84.472-.21 1.19-.21 1.085 0 1.356.648.166.385.166.945 0 .927-.41 1.881-.412.945-1.016 1.313-.586.358-1.234.358-.9 0-1.443-.62-.377-.438-.49-.736-.114-.306-.114-.866 0-1.059.849-1.873zm1.408 3.597q.735 0 1.33-1.007.604-1.015.604-2.292 0-.193-.044-.289-.043-.096-.157-.192-.324-.272-.691-.272-.062 0-.14.018-.07.009-.237.035-.166.017-.393.044-.307.043-.49.14-.175.087-.447.341-.516.49-.735.91-.218.411-.218.901 0 .726.446 1.19.455.464 1.172.473zM126.834 4.007q0-.297.175-.297.114 0 .167.262.052.254.192 1.523.175 1.417.184 1.435.009.009.07-.166.07-.184.184-.543.175-.577.297-.831.123-.263.438-.718.638-.883.988-.883.228 0 .43.306.27.402.332.796.06.394.087 1.864.018.945.018 1.12 0 .437-.035.639-.027.192-.088.236-.052.052-.192.061-.08 0-.105-.07-.027-.061-.027-.297 0-.132.018-.56.017-.438.017-.735 0-.744-.061-1.453-.052-.717-.131-.919-.044-.113-.14-.236-.096-.122-.184-.122-.184 0-.586.63-.403.621-.691 1.312-.272.63-.368.971-.087.333-.149.91-.096.893-.14.893-.07 0-.201-.149-.096-.096-.131-.411-.035-.324-.096-1.269-.062-.954-.167-1.925-.105-1.006-.105-1.374zM132.147 3.754q.122-.105.21-.105.184 0 .262.586.088.577.158 2.231.035.77.035 1.391 0 .622-.053.683-.105.131-.262.131-.219 0-.271-.184-.044-.113-.132-1.767-.087-1.663-.087-2.31 0-.543.14-.656zm-.053-2.057q0-.122.097-.245.105-.122.183-.122.088 0 .237.122.157.114.157.298 0 .131-.079.227-.07.088-.192.088-.14 0-.272-.105-.13-.105-.13-.263zM135.624 2.66q0-.324-.062-.823-.06-.498-.06-.83 0-.167.008-.22.026-.14.096-.218.08-.088.158-.088.105 0 .149.096.026.062.078.648.053.586.097 1.146.043.56.06.578.01.008.027.008.07 0 .403-.07.34-.078.56-.078.437 0 .437.192 0 .193-.962.429l-.438.105.053 1.479q.043 1.303.166 2.44.122 1.13.122 1.278 0 .272-.201.272-.157 0-.262-.28-.097-.28-.097-.727 0-.323-.026-.656-.026-.341-.096-1.05-.061-.717-.123-1.47-.026-.402-.043-.621-.01-.219-.027-.324-.017-.105-.026-.122-.009-.027-.035-.027-.14 0-.674.097-.533.096-.665.096-.253 0-.253-.21 0-.149.315-.254.323-.105.726-.184.402-.087.499-.148.096-.07.096-.464zM139.46 4.812q.683-.638 1.147-.84.472-.21 1.19-.21 1.085 0 1.356.648.166.385.166.945 0 .927-.41 1.881-.412.945-1.016 1.313-.586.358-1.234.358-.9 0-1.443-.62-.377-.438-.49-.736-.114-.306-.114-.866 0-1.059.849-1.873zm1.41 3.597q.734 0 1.33-1.007.603-1.015.603-2.292 0-.193-.043-.289-.044-.096-.158-.192-.324-.272-.691-.272-.061 0-.14.018-.07.009-.236.035-.167.017-.394.044-.306.043-.49.14-.175.087-.446.341-.517.49-.735.91-.22.411-.22.901 0 .726.447 1.19.455.464 1.173.473zM147.435 4.489q.15 0 .263.096.114.087.114.149 0 .105-.333.236-.542.219-1.111 1.059-.56.831-.683 1.61-.14.883-.227 1.155-.088.28-.228.28-.122 0-.192-.088-.061-.087-.088-.192-.017-.105-.043-.385-.01-.053-.01-.079-.21-2.205-.21-3.483 0-.455.036-.56.096-.28.245-.28.14 0 .14.237 0 .393.122 1.268.123.875.184.875.079 0 .324-.48.306-.57.813-.99.517-.428.884-.428z"/></g><g style="line-height:125%;text-align:center" font-weight="400" font-size="8.75" font-family="Purisa" letter-spacing="0" word-spacing="0" text-anchor="middle" fill="#4d4d4d"><path style="-inkscape-font-specification:Purisa;text-align:center" d="M202.152 39.29q0-.325-.062-.823-.06-.5-.06-.832 0-.166.008-.218.026-.14.096-.22.08-.087.158-.087.105 0 .149.097.026.06.078.647.053.586.097 1.146.043.56.06.578.01.009.027.009.07 0 .403-.07.34-.079.56-.079.437 0 .437.193 0 .192-.962.428l-.438.105.053 1.48q.043 1.303.166 2.44.122 1.13.122 1.278 0 .271-.201.271-.157 0-.262-.28-.097-.28-.097-.726 0-.324-.026-.656-.026-.342-.096-1.05l-.123-1.47q-.026-.403-.043-.622-.01-.218-.027-.323-.017-.105-.026-.123-.009-.026-.035-.026-.14 0-.674.096t-.665.096q-.254 0-.254-.21 0-.148.315-.253.324-.105.727-.184.402-.088.498-.149.097-.07.097-.464zM208.273 41.118q.148 0 .262.096.114.088.114.149 0 .105-.333.236-.542.219-1.111 1.059-.56.831-.683 1.61-.14.884-.227 1.155-.087.28-.228.28-.122 0-.192-.088-.061-.087-.087-.192-.018-.105-.044-.385-.01-.053-.01-.079-.21-2.205-.21-3.482 0-.455.036-.56.096-.28.245-.28.14 0 .14.236 0 .394.122 1.269.123.875.184.875.079 0 .324-.482.306-.568.814-.988.516-.43.883-.43zM212.415 41.013q-.403 0-.858.166-.446.166-.796.341-.35.167-.508.167-.105 0-.105-.088 0-.122.053-.21.052-.087.192-.166.14-.079.263-.131.131-.053.411-.15.28-.104.481-.192.473-.183.797-.183.577 0 .9.63.158.306.185.568.026.254.043 1.444.01.665.027 1.12.017.446.035.569l.017.114q0 .122-.114.262-.105.14-.157.14-.175 0-.271-.551-.097-.56-.105-.56-.027 0-.079.096-.175.289-.709.639-.525.341-.884.341-.218 0-.516-.079-.289-.087-.42-.183-.096-.079-.166-.315-.061-.237-.061-.482 0-.367.192-.63.201-.27.709-.55.551-.325 1.067-.325.21 0 .35.07.14.07.21.15.07.07.114.07t.166.095q.132.088.14.088.035 0 .035-.193 0-1.172-.166-1.627-.157-.455-.472-.455zm.393 2.712q0-.035-.026-.078-.017-.053-.087-.114-.061-.07-.167-.123-.096-.06-.27-.096-.176-.044-.395-.044-.376 0-.665.132-.28.131-.42.332-.14.201-.21.376-.06.167-.06.298 0 .219.034.297.044.08.201.167.193.096.35.096.298 0 .735-.21.447-.219.447-.315 0-.07.262-.333.271-.27.271-.385zM218.537 41.853q0 .149-.07.245-.062.096-.15.096-.165 0-.21-.254-.017-.2-.288-.507-.114-.123-.184-.175-.07-.053-.332-.114-.254-.061-.674-.061-.341 0-.525.122-.175.123-.437.5-.63.892-.63 1.61 0 .367.078.62.08.245.15.333l.253.254q.254.245.385.315.14.06.385.06.761 0 1.662-1.032.473-.525.683-.525.114 0 .114.167 0 .157-.42.673-.412.517-.71.727-.69.498-1.233.498-.394 0-.866-.236-.481-.236-.7-.639-.21-.402-.254-1.172-.026-.298-.026-.473 0-.34.236-.778.245-.473.709-.91.472-.438.814-.534.262-.061.568-.061.665 0 1.164.428.508.42.508.823zM219.537 38.852v-.053-.079-.078q.01-.053.018-.079.017-.035.035-.061.026-.035.061-.053.035-.017.087-.017.167 0 .245.201.053.123.114.753.07.63.14 1.417.079.788.131 1.12l.07.508.998-.998q.534-.534.752-.717.22-.193.324-.193.062 0 .131.088.08.087.08.175 0 .06-.036.105-.026.035-.079.07-.043.026-.148.14-.105.113-.228.28-.359.542-1.382 1.365-.35.27-.35.455 0 .122.157.2l.936.438q.648.307 1.077.613.428.306.428.472 0 .184-.175.184-.157 0-.463-.21-.307-.219-.385-.219-.105 0-.105-.07 0-.096-1.068-.49l-.464-.175.062.727q.026.288.026.455 0 .367-.184.367-.28 0-.359-.385-.07-.394-.13-1.986-.053-1.409-.132-1.838-.07-.393-.131-1.172-.053-.788-.053-1.26zM225.22 43.314q-.13 0-.56-.315-.428-.324-.428-.656 0-.315.446-.866.446-.56 1.076-.718.29-.079.762-.079.2 0 .297.053.096.052.263.236.27.306.27.42 0 .105-.113.105-.14 0-.236-.096-.096-.105-.236-.21-.14-.105-.377-.105-.306 0-.656.166-.35.167-.621.464-.385.411-.385.56 0 .149.227.359.228.201.762.385.84.289 1.137.542.298.254.298.683 0 .402-.14.735-.097.254-.412.569-.315.315-.62.315-.237 0-.613-.08-.377-.07-.57-.165-.157-.08-.288-.307-.131-.236-.131-.42 0-.096.044-.166.052-.079.122-.079.131 0 .245.245.105.22.42.394.324.175.604.175.376 0 .665-.446.289-.455.289-.709 0-.061-.035-.149-.027-.096-.15-.227-.122-.131-.314-.201-.184-.062-.429-.167l-.411-.175q-.158-.07-.201-.07zM234.431 44.618q0-.7-.175-2.818-.166-2.126-.166-2.93 0-.465.053-.56.105-.185.201-.185.157 0 .201.307.053.306.14 1.548.07.998.123 1.672l.078 1.032.158-.341q.175-.394.857-1.033.683-.638.92-.638.218 0 .48.245.263.245.342.525.07.236.07 2.126 0 1.365-.027 1.619-.026.245-.166.245t-.184-.254q-.035-.254-.07-1.461-.052-1.69-.21-2.162l-.14-.437-.507.472q-.403.385-.744.875-.332.49-.455.867-.079.27-.131.866-.053.595-.131.98-.07.385-.21.385-.062 0-.15-.07-.157-.131-.157-.875zM243.27 43.49q.044 0 .044.07 0 .157-.237.507-.227.35-.49.577-.918.814-1.837.814-.35 0-.7-.158-.341-.166-.639-.463-.297-.298-.481-.797-.184-.498-.184-1.11 0-.377.088-.64.175-.533.743-1.128.578-.595 1.085-.595.14 0 .42.026.42.035.587.087.175.053.393.22.28.21.482.542.21.323.21.542 0 .28-.22.429-.218.14-.848.28-.814.184-1.61.227l-.814.044v.35q0 .648.604 1.225.455.438.945.438.376 0 .796-.228.43-.236.727-.516t.568-.508q.272-.236.368-.236zm-1.409-2.136q-.271-.245-.411-.306-.131-.07-.35-.07-.438 0-.656.087-.21.08-.43.333-.664.761-.664 1.015 0 .114.21.114.796 0 2.257-.333.438-.105.438-.367 0-.123-.394-.473zM246.868 41.013q-.403 0-.858.166-.446.166-.796.341-.35.167-.507.167-.105 0-.105-.088 0-.122.052-.21.053-.087.193-.166.14-.079.262-.131.131-.053.411-.15.28-.104.482-.192.472-.183.796-.183.577 0 .901.63.158.306.184.568.026.254.044 1.444.009.665.026 1.12.017.446.035.569l.017.114q0 .122-.113.262-.105.14-.158.14-.175 0-.271-.551-.096-.56-.105-.56-.026 0-.079.096-.175.289-.709.639-.525.341-.883.341-.22 0-.517-.079-.288-.087-.42-.183-.096-.079-.166-.315-.061-.237-.061-.482 0-.367.192-.63.201-.27.709-.55.551-.325 1.067-.325.21 0 .35.07.14.07.21.15.07.07.114.07t.166.095q.132.088.14.088.035 0 .035-.193 0-1.172-.166-1.627-.157-.455-.472-.455zm.394 2.712q0-.035-.027-.078-.017-.053-.087-.114-.061-.07-.166-.123-.097-.06-.272-.096-.175-.044-.393-.044-.377 0-.665.132-.28.131-.42.332-.14.201-.21.376-.062.167-.062.298 0 .219.035.297.044.08.201.167.193.096.35.096.298 0 .735-.21.447-.219.447-.315 0-.07.262-.333.271-.27.271-.385zM254.18 45.458q0 .192-.08.297-.07.114-.13.132-.053.026-.097.026-.113 0-.192-.079-.079-.07-.123-.262-.043-.184-.06-.28l-.036-.359q-.061-.884-.14-.884-.096 0-.306.254-.98 1.155-2.065 1.155-.324 0-.648-.122-1.12-.42-1.12-1.715 0-.56.184-1.068.193-.516.481-.866.298-.35.595-.586.298-.237.57-.333.34-.131.472-.131.227 0 .76.297.543.298.753.578.237.315.36.315h.008q0-.01.01-.01.095-.06.095-2.283 0-2.196.105-2.494.114-.271.342-.271h.236l-.07 3.596q-.027 1.339-.027 2.389 0 1.426.062 2.039.061.612.061.665zm-2.048-3.876q-.516-.342-.717-.342-.175 0-.788.595-.612.595-.726.875-.088.21-.088.762 0 .673.114.875.088.157.42.34.341.185.674.185.595 0 1.505-.875.717-.692.717-.902 0-.288-.367-.77-.359-.48-.744-.743zM226.072 56.702q-.245 0-.525-.237-.28-.227-.28-.726 0-.534.368-1.277l.385-.797-.158-.48q-.236-.683-.236-1.068 0-.307.149-.517.148-.218.48-.42.403-.236.587-.236l.105.026q.105.018.184.018.096 0 .201.262.114.254.114.447 0 .253-.35 1.006-.35.752-.35.884 0 .175.437.577.438.403.64.403.139 0 .314-.21t.315-.455q.149-.254.333-.464.192-.21.358-.21.097 0 .193.087.096.088.096.167 0 .131-.481.743-.473.613-.473.735 0 .053.079.053t.263.14q.183.14.35.14.245 0 .507.166.271.166.271.315 0 .236-.306.236-.49 0-1.155-.49l-.332-.236-.5.438q-.305.271-.84.621-.533.359-.743.359zm.219-4.42q0 .57.105.57.096 0 .271-.193.219-.245.219-.709 0-.463-.105-.463-.07 0-.263.14-.14.087-.183.218-.044.123-.044.438zm-.49 3.405q0 .175.061.288.061.114.166.114.132 0 .692-.341.568-.341.717-.368.193-.035.193-.13 0-.097-.184-.228-.184-.132-.464-.315-.271-.184-.403-.342l-.183-.227-.298.577q-.297.57-.297.972zM201.871 64.165q0-1.636.245-1.636.044 0 .088.018.052.017.122.13.07.106.07.298 0 .088-.017.298-.018.201-.018.455 0 .709.08 1.724.078 1.015.165 1.33.088.34.298.34.201 0 .612-.358.508-.446.972-1.391.472-.945.656-1.89.175-.928.289-.989.087-.061.183-.061.21 0 .21.245 0 .131-.13 1.032-.123.893-.123 1.287 0 .55.218 1.373.228.814.228.928 0 .087-.07.14-.07.052-.123.061-.043.018-.07.018-.157 0-.315-.447-.148-.446-.27-.892-.115-.446-.202-.446-.018 0-.035.009-.018.009-.044.035-.017.017-.035.043-.017.027-.052.07-.027.044-.053.08-.017.034-.061.104l-.07.114q-.385.604-.858 1.006-.463.403-.787.403-.368 0-.551-.167-.184-.157-.298-.577-.105-.42-.192-1.33-.061-.578-.061-1.356zM207.274 63.142q.245-.22.245-.377t.096-.376q.105-.227.298-.227.122 0 .21.14.096.13.201.13.079 0 .648-.13.568-.14.997-.14.359 0 .796.096.91.21.91 1.129 0 .7-.542 1.863-.359.77-.875 1.19-.516.412-1.103.412-.166 0-.253-.018l-.403-.061.096.472q.315 1.488.315 1.864 0 .175-.06.228-.062.06-.21.06-.158 0-.228-.078-.062-.07-.132-.306-.34-1.225-.55-3.658-.097-1.198-.167-1.46-.061-.272-.254-.272-.28 0-.28-.166 0-.097.245-.315zm1.304 2.905q.131 0 .306.113.175.105.298.105.35 0 .805-.446.455-.455.77-1.094.324-.638.324-1.137 0-.271-.123-.49-.114-.219-.201-.245-.149-.061-.516-.061-.814 0-1.444.2l-.586.193.017.56q.018.56.096 1.427.044.516.096.69.053.176.158.185zM213 63.142q.244-.22.244-.377t.097-.376q.105-.227.297-.227.123 0 .21.14.096.13.201.13.079 0 .648-.13.569-.14.997-.14.36 0 .797.096.91.21.91 1.129 0 .7-.543 1.863-.359.77-.875 1.19-.516.412-1.102.412-.167 0-.254-.018l-.403-.061.097.472q.315 1.488.315 1.864 0 .175-.062.228-.06.06-.21.06-.157 0-.227-.078-.061-.07-.131-.306-.342-1.225-.552-3.658-.096-1.198-.166-1.46-.061-.272-.254-.272-.28 0-.28-.166 0-.097.245-.315zm1.303 2.905q.131 0 .306.113.175.105.298.105.35 0 .805-.446.455-.455.77-1.094.324-.638.324-1.137 0-.271-.123-.49-.114-.219-.201-.245-.149-.061-.516-.061-.814 0-1.444.2l-.586.193.017.56q.018.56.096 1.427.044.516.097.69.052.176.157.185zM222.924 65.364q.044 0 .044.07 0 .158-.236.508-.228.35-.49.577-.919.814-1.838.814-.35 0-.7-.158-.34-.166-.638-.463-.298-.298-.482-.797-.183-.498-.183-1.11 0-.377.087-.64.175-.533.744-1.128.577-.595 1.085-.595.14 0 .42.026.42.035.586.087.175.053.394.22.28.21.481.542.21.323.21.542 0 .28-.219.429-.218.14-.848.28-.814.184-1.61.227l-.814.044v.35q0 .648.604 1.225.455.438.945.438.376 0 .796-.228.429-.236.726-.516.298-.28.569-.508.271-.236.367-.236zm-1.408-2.135q-.272-.245-.412-.306-.13-.07-.35-.07-.437 0-.656.087-.21.08-.429.333-.665.761-.665 1.015 0 .114.21.114.797 0 2.258-.333.437-.105.437-.367 0-.123-.393-.473zM226.977 62.993q.15 0 .263.096.114.088.114.149 0 .105-.333.236-.542.219-1.111 1.059-.56.831-.683 1.61-.14.884-.227 1.155-.088.28-.228.28-.122 0-.192-.088-.061-.087-.088-.192-.017-.105-.043-.385-.01-.053-.01-.079-.21-2.205-.21-3.482 0-.455.036-.56.096-.28.245-.28.14 0 .14.236 0 .394.122 1.269.123.875.184.875.079 0 .324-.482.306-.568.813-.988.517-.43.884-.43zM237.756 62.503q.123 0 .28.079.166.07.35.227.184.149.306.464.123.306.123.717 0 .613-.28 1.278-.271.656-.761 1.146-.368.368-.972.7-.595.333-.883.333-.289 0-.648-.202-.359-.2-.402-.376-.027-.096-.096-1.767-.07-1.68-.184-2.38-.236-1.488-.236-2.38 0-.324.122-.447.131-.13.21-.13.131 0 .175.323.053.324.105 1.067.053.744.14 1.304.114.735.158 1.208l.043.48.683-.673q.682-.682 1.146-.831.446-.14.621-.14zm.551 1.531q0-.971-.577-.971-.158 0-.429.052-.184.035-.612.42-.429.377-.779.814-.219.28-.35.744-.123.464-.123.91 0 .499.15.735.148.227.332.227.096 0 .437-.105.385-.122.805-.49.429-.367.744-.848.402-.622.402-1.488zM242.501 62.888q-.402 0-.857.166-.446.166-.796.341-.35.167-.508.167-.105 0-.105-.088 0-.122.053-.21.052-.087.192-.166.14-.079.263-.131.13-.053.41-.15.28-.104.482-.192.473-.183.796-.183.578 0 .902.63.157.306.183.568.027.254.044 1.444.01.665.026 1.12.018.446.035.569l.018.114q0 .122-.114.262-.105.14-.157.14-.175 0-.272-.551-.096-.56-.105-.56-.026 0-.078.096-.175.289-.71.639-.524.341-.883.341-.219 0-.516-.079-.289-.087-.42-.183-.096-.08-.166-.315-.062-.237-.062-.482 0-.367.193-.63.201-.27.709-.55.55-.325 1.067-.325.21 0 .35.07.14.07.21.15.07.07.114.07t.166.095q.131.088.14.088.035 0 .035-.193 0-1.172-.166-1.627-.158-.455-.473-.455zm.394 2.712q0-.035-.026-.078-.018-.053-.088-.114-.061-.07-.166-.123-.096-.06-.271-.096-.175-.044-.394-.044-.376 0-.665.132-.28.13-.42.332-.14.201-.21.376-.061.167-.061.298 0 .219.035.297.044.08.201.167.193.096.35.096.298 0 .735-.21.446-.219.446-.315 0-.07.263-.333.271-.27.271-.385zM248.623 63.728q0 .149-.07.245-.061.096-.149.096-.166 0-.21-.254-.017-.2-.288-.507-.114-.123-.184-.175-.07-.053-.333-.114-.253-.061-.673-.061-.342 0-.525.122-.175.123-.438.5-.63.892-.63 1.61 0 .367.079.62.079.245.149.333l.253.254q.254.245.385.315.14.06.385.06.762 0 1.663-1.032.472-.525.682-.525.114 0 .114.167 0 .157-.42.673-.411.517-.709.727-.69.498-1.233.498-.394 0-.867-.236-.48-.236-.7-.639-.21-.402-.253-1.172-.027-.298-.027-.473 0-.34.237-.778.245-.473.708-.91.473-.438.814-.534.263-.061.569-.061.665 0 1.164.428.507.42.507.823zM249.624 60.727v-.053-.079-.078q.009-.053.017-.079.018-.035.035-.061.027-.035.062-.053.035-.017.087-.017.166 0 .245.201.053.123.114.753.07.63.14 1.417.079.788.131 1.12l.07.508.998-.998q.533-.534.752-.717.219-.193.324-.193.061 0 .131.088.079.087.079.175 0 .06-.035.105-.026.035-.079.07-.044.026-.149.14-.105.113-.227.28-.359.542-1.383 1.365-.35.27-.35.455 0 .122.158.2l.936.438q.648.307 1.076.613.429.306.429.472 0 .184-.175.184-.157 0-.464-.21-.306-.219-.385-.219-.105 0-.105-.07 0-.096-1.067-.49l-.464-.175.061.727q.027.288.027.455 0 .367-.184.367-.28 0-.359-.385-.07-.394-.131-1.986-.053-1.409-.131-1.838-.07-.393-.132-1.172-.052-.788-.052-1.26z"/></g><path d="M182.661 93.25c9.496 4.167-1.452 19.921 11.35 26.449-11.534 12.098-1.186 22.2-9.728 28.616" fill="none" stroke="#ff6161" stroke-width="2.5"/><g style="line-height:125%;text-align:center" font-weight="400" font-size="8.75" font-family="Purisa" letter-spacing="0" word-spacing="0" text-anchor="middle" fill="#4d4d4d"><path style="-inkscape-font-specification:Purisa;text-align:center" d="M193.651 105.113q-.052-.56-.052-1.234 0-.674.035-1.024.035-.359.087-.455.053-.096.149-.096.087 0 .14.079.052.087.315 4.05.271 3.965.271 4.122 0 .114-.052.158-.053.035-.175.035-.21 0-.272-.298-.06-.306-.175-1.899-.14-1.925-.27-3.438zM200.335 108.989q.043 0 .043.07 0 .157-.236.507-.227.35-.49.578-.919.814-1.837.814-.35 0-.7-.158-.342-.166-.64-.464-.297-.297-.48-.796-.184-.499-.184-1.111 0-.376.087-.639.175-.534.744-1.129.578-.595 1.085-.595.14 0 .42.027.42.035.586.087.175.053.394.219.28.21.481.542.21.324.21.543 0 .28-.218.429-.22.14-.85.28-.813.183-1.61.227l-.813.044v.35q0 .647.604 1.225.455.437.945.437.376 0 .796-.227.429-.236.726-.516.298-.28.57-.508.27-.236.367-.236zm-1.41-2.135q-.27-.245-.41-.306-.132-.07-.35-.07-.438 0-.657.087-.21.079-.428.333-.665.76-.665 1.015 0 .113.21.113.796 0 2.257-.332.438-.105.438-.368 0-.122-.394-.472zM203.933 106.513q-.403 0-.858.166-.446.166-.796.341-.35.166-.508.166-.105 0-.105-.087 0-.123.053-.21.052-.088.192-.166.14-.08.263-.132.131-.052.411-.148.28-.105.481-.193.473-.184.797-.184.577 0 .9.63.158.307.185.57.026.253.043 1.443.01.665.027 1.12.017.446.035.569l.017.113q0 .123-.114.263-.105.14-.157.14-.175 0-.271-.551-.097-.56-.105-.56-.027 0-.08.096-.174.289-.708.639-.525.34-.884.34-.218 0-.516-.078-.289-.087-.42-.184-.096-.078-.166-.315-.062-.236-.062-.48 0-.368.193-.63.201-.272.709-.552.551-.324 1.067-.324.21 0 .35.07.14.07.21.149.07.07.114.07t.166.096q.131.088.14.088.035 0 .035-.193 0-1.172-.166-1.627-.158-.455-.473-.455zm.393 2.712q0-.035-.026-.079-.017-.052-.087-.113-.062-.07-.167-.123-.096-.061-.271-.096-.175-.044-.394-.044-.376 0-.665.132-.28.13-.42.332-.14.201-.21.376-.061.167-.061.298 0 .219.035.297.044.079.201.167.193.096.35.096.298 0 .735-.21.446-.219.446-.315 0-.07.263-.333.271-.271.271-.385zM206.738 106.136q0-.297.175-.297.114 0 .166.262.053.254.193 1.523.175 1.417.184 1.435.009.009.07-.166.07-.184.183-.543.175-.577.298-.831.122-.263.437-.718.64-.883.99-.883.227 0 .428.306.271.402.332.796.062.394.088 1.864.017.945.017 1.12 0 .437-.035.639-.026.192-.087.236-.053.052-.193.061-.078 0-.105-.07-.026-.061-.026-.297 0-.132.018-.56.017-.438.017-.735 0-.744-.061-1.453-.053-.717-.131-.919-.044-.113-.14-.236-.097-.122-.184-.122-.184 0-.586.63-.403.62-.692 1.312-.27.63-.367.971-.088.333-.149.91-.096.893-.14.893-.07 0-.201-.149-.096-.096-.131-.411-.035-.324-.097-1.269-.06-.954-.166-1.925-.105-1.006-.105-1.374zM212.05 105.883q.123-.105.21-.105.184 0 .263.586.088.577.158 2.231.035.77.035 1.391 0 .622-.053.683-.105.131-.262.131-.22 0-.272-.184-.043-.113-.13-1.767-.088-1.663-.088-2.31 0-.543.14-.656zm-.052-2.057q0-.122.096-.245.105-.122.184-.122.088 0 .236.122.158.114.158.298 0 .131-.079.227-.07.088-.192.088-.14 0-.272-.105-.13-.105-.13-.263zM214.582 106.136q0-.297.175-.297.114 0 .167.262.052.254.192 1.523.175 1.417.184 1.435.009.009.07-.166.07-.184.184-.543.175-.577.297-.831.123-.263.438-.718.638-.883.988-.883.228 0 .43.306.27.402.332.796.061.394.087 1.864.018.945.018 1.12 0 .437-.035.639-.027.192-.088.236-.052.052-.192.061-.08 0-.105-.07-.027-.061-.027-.297 0-.132.018-.56.017-.438.017-.735 0-.744-.06-1.453-.053-.717-.132-.919-.044-.113-.14-.236-.096-.122-.184-.122-.184 0-.586.63-.403.62-.691 1.312-.272.63-.368.971-.087.333-.149.91-.096.893-.14.893-.07 0-.2-.149-.097-.096-.132-.411-.035-.324-.096-1.269-.062-.954-.167-1.925-.105-1.006-.105-1.374zM223.377 112.524q.08 0 .14-.018.07-.009.114-.035.044-.026.079-.052t.052-.07q.018-.035.027-.07.017-.026.017-.07v-.061V112.078q0-.84-.114-1.593l-.122-.761q-.061-.893-.123-.893-.035 0-.13.158-.22.324-.71.726-.49.403-.813.525-.368.149-.832.149-.28 0-.446-.07-.157-.07-.42-.298-.254-.227-.359-.402-.105-.175-.166-.499-.061-.324-.061-.551 0-.166.026-.245.061-.236.324-.735.262-.499.481-.779.184-.245.683-.569.507-.332.892-.455.403-.13.919-.13.647 0 1.076.227.429.218.429.682 0 .263-.131.648-.123.385-.123.673 0 .315.201 2.897l.132 1.81-.307.246q-.245.201-.498.201-.464 0-1.13-.236-.664-.228-1.145-.534-.482-.297-.482-.49 0-.227.237-.56.245-.332.41-.332.193 0 .193.13 0 .08-.078.237-.08.158-.08.306 0 .245.325.43.323.183.55.183.132 0 .43.175.306.175.533.175zm-3.325-3.973q0 .508.263.928.262.42.656.42.534 0 1.146-.481.622-.49 1.007-1.217.21-.41.358-.936.158-.534.158-.84 0-.175-.061-.21-.193-.105-.64-.105-.402 0-.69.088-.762.218-1.48 1.023-.717.805-.717 1.33zM232.754 104.789q0-.324-.061-.823-.062-.498-.062-.83 0-.167.01-.22.026-.14.096-.218.078-.088.157-.088.105 0 .149.096.026.062.079.648.052.586.096 1.146.044.56.061.578.01.009.026.009.07 0 .403-.07.341-.08.56-.08.437 0 .437.193t-.962.429l-.438.105.053 1.479q.044 1.304.166 2.441.123 1.129.123 1.278 0 .27-.202.27-.157 0-.262-.28-.096-.28-.096-.725 0-.324-.027-.657-.026-.341-.096-1.05-.061-.717-.122-1.47-.027-.402-.044-.621-.009-.219-.026-.324-.018-.105-.027-.122-.009-.027-.035-.027-.14 0-.673.097-.534.096-.665.096-.254 0-.254-.21 0-.149.315-.254.324-.105.726-.184.403-.087.499-.148.096-.07.096-.464zM236.591 106.941q.683-.638 1.146-.84.473-.21 1.19-.21 1.085 0 1.357.648.166.385.166.945 0 .927-.411 1.881-.412.945-1.015 1.313-.587.358-1.234.358-.901 0-1.444-.62-.376-.438-.49-.736-.114-.306-.114-.866 0-1.059.85-1.873zm1.409 3.597q.735 0 1.33-1.007.604-1.015.604-2.292 0-.193-.044-.289-.044-.096-.158-.192-.323-.272-.69-.272-.062 0-.14.018-.07.009-.237.035-.166.017-.394.044-.306.043-.49.14-.175.087-.446.34-.516.49-.735.91-.219.412-.219.902 0 .726.446 1.19.455.464 1.173.473zM248.184 108.814q-.131 0-.56-.315-.429-.324-.429-.656 0-.315.446-.867.447-.56 1.077-.717.288-.079.76-.079.202 0 .298.053.097.052.263.236.271.306.271.42 0 .105-.114.105-.14 0-.236-.096-.096-.105-.236-.21-.14-.105-.376-.105-.307 0-.657.166-.35.166-.621.464-.385.411-.385.56 0 .148.228.358.227.202.76.385.84.29 1.138.543.298.254.298.682 0 .403-.14.735-.096.254-.411.57-.315.314-.622.314-.236 0-.612-.079-.376-.07-.569-.166-.157-.079-.289-.306-.131-.236-.131-.42 0-.096.044-.166.052-.079.122-.079.131 0 .245.245.105.219.42.394.324.175.604.175.376 0 .665-.447.289-.455.289-.708 0-.062-.035-.149-.027-.096-.149-.228-.123-.13-.315-.2-.184-.062-.429-.167l-.411-.175q-.158-.07-.201-.07zM251.904 105.883q.123-.105.21-.105.184 0 .263.586.087.577.157 2.231.035.77.035 1.391 0 .622-.052.683-.105.131-.263.131-.219 0-.271-.184-.044-.113-.131-1.767-.088-1.663-.088-2.31 0-.543.14-.656zm-.052-2.057q0-.122.096-.245.105-.122.184-.122.087 0 .236.122.157.114.157.298 0 .131-.078.227-.07.088-.193.088-.14 0-.271-.105t-.131-.263zM258.942 110.958q0 .192-.079.297-.07.114-.13.131-.053.027-.097.027-.114 0-.193-.079-.078-.07-.122-.263-.044-.183-.061-.28l-.035-.358q-.061-.884-.14-.884-.096 0-.307.254-.98 1.155-2.065 1.155-.323 0-.647-.123-1.12-.42-1.12-1.715 0-.56.184-1.067.192-.517.481-.867.297-.35.595-.586.297-.236.569-.332.341-.132.472-.132.228 0 .761.298.543.297.753.577.236.315.359.315h.009q0-.009.009-.009.096-.06.096-2.283 0-2.197.105-2.494.114-.271.341-.271h.236l-.07 3.596q-.026 1.339-.026 2.389 0 1.426.061 2.038.062.613.062.665zm-2.047-3.877q-.517-.34-.718-.34-.175 0-.787.594-.613.595-.727.875-.087.21-.087.761 0 .674.114.875.087.158.42.342.34.183.673.183.595 0 1.505-.875.718-.69.718-.9 0-.29-.368-.77-.358-.482-.743-.745zM264.558 108.989q.044 0 .044.07 0 .157-.236.507-.228.35-.49.578-.919.814-1.838.814-.35 0-.7-.158-.341-.166-.638-.464-.298-.297-.482-.796-.183-.499-.183-1.111 0-.376.087-.639.175-.534.744-1.129.577-.595 1.085-.595.14 0 .42.027.42.035.586.087.175.053.394.219.28.21.481.542.21.324.21.543 0 .28-.219.429-.218.14-.848.28-.814.183-1.61.227l-.814.044v.35q0 .647.604 1.225.455.437.945.437.376 0 .796-.227.428-.236.726-.516.297-.28.569-.508.271-.236.367-.236zm-1.408-2.135q-.272-.245-.412-.306-.13-.07-.35-.07-.437 0-.656.087-.21.079-.429.333-.665.76-.665 1.015 0 .113.21.113.797 0 2.258-.332.437-.105.437-.368 0-.122-.393-.472zM266.572 108.814q-.13 0-.56-.315-.428-.324-.428-.656 0-.315.446-.867.446-.56 1.076-.717.289-.079.761-.079.202 0 .298.053.096.052.262.236.272.306.272.42 0 .105-.114.105-.14 0-.236-.096-.097-.105-.237-.21-.14-.105-.376-.105-.306 0-.656.166-.35.166-.621.464-.385.411-.385.56 0 .148.227.358.228.202.761.385.84.29 1.138.543.297.254.297.682 0 .403-.14.735-.096.254-.41.57-.316.314-.622.314-.236 0-.613-.079-.376-.07-.568-.166-.158-.079-.29-.306-.13-.236-.13-.42 0-.096.043-.166.053-.079.123-.079.131 0 .245.245.105.219.42.394.324.175.604.175.376 0 .665-.447.288-.455.288-.708 0-.062-.035-.149-.026-.096-.148-.228-.123-.13-.315-.2-.184-.062-.43-.167l-.41-.175q-.158-.07-.202-.07zM229.63 122.201q-.245 0-.525-.236-.28-.227-.28-.726 0-.534.367-1.278l.385-.796-.157-.481q-.237-.683-.237-1.068 0-.306.15-.516.148-.219.48-.42.403-.236.587-.236l.105.026q.105.018.183.018.097 0 .202.262.113.254.113.446 0 .254-.35 1.007-.35.752-.35.883 0 .175.438.578.437.402.639.402.14 0 .315-.21t.315-.455q.148-.253.332-.463.193-.21.359-.21.096 0 .192.087.097.088.097.166 0 .132-.481.744-.473.613-.473.735 0 .053.079.053t.262.14q.184.14.35.14.245 0 .508.166.271.166.271.315 0 .236-.306.236-.49 0-1.155-.49l-.333-.236-.498.437q-.307.272-.84.622-.534.358-.744.358zm.218-4.418q0 .568.105.568.097 0 .272-.192.218-.245.218-.709 0-.464-.105-.464-.07 0-.262.14-.14.088-.184.22-.043.122-.043.437zm-.49 3.403q0 .175.062.29.061.113.166.113.131 0 .691-.341.569-.342.718-.368.192-.035.192-.131t-.184-.228q-.183-.13-.463-.315-.272-.183-.403-.34l-.184-.228-.297.577q-.298.569-.298.971zM206.845 126.988q-.053-.56-.053-1.234 0-.674.035-1.024.035-.359.088-.455.052-.096.148-.096.088 0 .14.079.053.087.315 4.05.272 3.965.272 4.122 0 .114-.053.158-.052.035-.175.035-.21 0-.271-.298-.062-.306-.175-1.899-.14-1.925-.271-3.438zM209.897 128.816q.682-.638 1.146-.84.473-.21 1.19-.21 1.085 0 1.356.648.167.385.167.945 0 .927-.412 1.881-.411.945-1.015 1.313-.586.358-1.233.358-.902 0-1.444-.62-.376-.438-.49-.736-.114-.306-.114-.866 0-1.059.849-1.873zm1.409 3.597q.735 0 1.33-1.007.603-1.015.603-2.292 0-.193-.043-.289-.044-.096-.158-.192-.324-.272-.691-.272-.061 0-.14.018-.07.009-.236.035-.167.017-.394.044-.306.043-.49.14-.175.087-.446.34-.517.49-.735.91-.22.412-.22.902 0 .726.447 1.19.455.464 1.173.473zM214.66 128.221q0-.078.07-.192.07-.123.14-.123.096 0 .236.175.14.158.202.762.07.595.14.726.061.105.21.744.148.63.28 1.207.14.569.183.569.01 0 .097-.245.096-.245.218-.578.123-.34.184-.56.228-.76.525-.76.158 0 .534.384.385.385.525.683.149.323.315.525l.149.175.087-.254q.044-.105.359-1.689.324-1.584.49-1.785.052-.061.14-.061.087 0 .157.07.08.07.08.157 0 .027-.062.21-.053.175-.158.604-.105.42-.192.954-.114.656-.368 1.575-.245.91-.332.997-.07.07-.228.035-.096-.017-.306-.34-.21-.333-.674-1.208-.052-.097-.218-.272-.158-.183-.21-.183-.044 0-.08.052-.034.053-.104.219-.061.157-.131.359-.07.2-.22.595-.148.393-.314.805-.149.428-.359.428-.061 0-.122-.052-.114-.096-.272-.683-.157-.595-.332-1.4-.175-.813-.254-1.093-.166-.517-.166-.78 0-.192-.114-.437-.105-.245-.105-.315zM225.303 130.864q.044 0 .044.07 0 .157-.237.507-.227.35-.49.578-.918.814-1.837.814-.35 0-.7-.158-.341-.166-.639-.464-.297-.297-.481-.796-.184-.499-.184-1.111 0-.376.088-.639.175-.534.743-1.129.578-.595 1.085-.595.14 0 .42.027.42.035.587.087.175.053.393.219.28.21.482.542.21.324.21.543 0 .28-.22.429-.218.14-.848.28-.814.183-1.61.227l-.814.044v.35q0 .647.604 1.225.455.437.945.437.376 0 .796-.227.43-.236.727-.516t.568-.508q.272-.236.368-.236zm-1.409-2.135q-.271-.245-.411-.306-.131-.07-.35-.07-.438 0-.656.087-.21.079-.43.333-.664.76-.664 1.015 0 .113.21.113.796 0 2.257-.332.438-.105.438-.368 0-.122-.394-.472zM229.356 128.493q.149 0 .262.096.114.087.114.149 0 .105-.332.236-.543.219-1.112 1.059-.56.83-.682 1.61-.14.883-.228 1.155-.087.28-.227.28-.123 0-.193-.088-.06-.087-.087-.192-.018-.105-.044-.385-.009-.053-.009-.08-.21-2.204-.21-3.482 0-.455.035-.56.096-.28.245-.28.14 0 .14.237 0 .393.123 1.268.122.875.183.875.08 0 .324-.48.306-.57.814-.99.516-.428.884-.428zM240.135 128.003q.122 0 .28.078.166.07.35.228.183.149.306.464.122.306.122.717 0 .613-.28 1.278-.27.656-.76 1.146-.368.367-.972.7-.595.332-.884.332-.289 0-.647-.2-.359-.202-.403-.377-.026-.096-.096-1.768-.07-1.68-.184-2.38-.236-1.487-.236-2.38 0-.323.123-.446.13-.131.21-.131.13 0 .175.324.052.323.105 1.067.052.744.14 1.304.113.735.157 1.207l.044.482.682-.674q.683-.683 1.146-.831.447-.14.622-.14zm.551 1.53q0-.97-.578-.97-.157 0-.428.052-.184.035-.613.42-.429.376-.779.814-.218.28-.35.744-.122.463-.122.91 0 .498.149.735.148.227.332.227.096 0 .438-.105.385-.122.805-.49.428-.367.743-.849.403-.62.403-1.487zM244.88 128.388q-.403 0-.858.166-.446.166-.796.341-.35.166-.507.166-.105 0-.105-.087 0-.123.052-.21.053-.088.193-.166.14-.08.262-.132.131-.052.411-.148.28-.105.482-.193.472-.184.796-.184.577 0 .901.63.158.307.184.57.026.253.044 1.443.009.665.026 1.12.017.446.035.569l.017.113q0 .123-.113.263-.105.14-.158.14-.175 0-.271-.551-.096-.56-.105-.56-.026 0-.079.096-.175.289-.709.639-.525.34-.883.34-.22 0-.517-.078-.288-.087-.42-.184-.096-.078-.166-.315-.061-.236-.061-.48 0-.368.192-.63.201-.272.709-.552.551-.324 1.067-.324.21 0 .35.07.14.07.21.149.07.07.114.07t.166.096q.132.088.14.088.035 0 .035-.193 0-1.172-.166-1.627-.157-.455-.472-.455zm.394 2.712q0-.035-.027-.079-.017-.052-.087-.113-.061-.07-.166-.123-.097-.061-.272-.096-.175-.044-.393-.044-.377 0-.665.132-.28.13-.42.332-.14.201-.21.376-.062.167-.062.298 0 .219.035.297.044.079.201.167.193.096.35.096.298 0 .735-.21.447-.219.447-.315 0-.07.262-.333.271-.271.271-.385zM251.002 129.228q0 .148-.07.245-.062.096-.15.096-.165 0-.21-.254-.017-.201-.288-.507-.114-.123-.184-.175-.07-.053-.332-.114-.254-.061-.674-.061-.341 0-.525.122-.175.123-.437.499-.63.892-.63 1.61 0 .367.078.621.08.245.15.333l.253.253q.254.245.385.315.14.062.385.062.761 0 1.662-1.033.473-.525.683-.525.114 0 .114.166 0 .158-.42.674-.412.516-.709.726-.691.5-1.234.5-.394 0-.866-.237-.481-.236-.7-.639-.21-.402-.254-1.172-.026-.298-.026-.473 0-.341.236-.779.245-.472.709-.91.472-.437.814-.533.262-.062.568-.062.665 0 1.164.429.508.42.508.823zM252.002 126.226v-.052-.079-.079q.01-.052.018-.078.017-.035.035-.062.026-.035.061-.052.035-.018.088-.018.166 0 .245.202.052.122.113.752.07.63.14 1.418.08.787.132 1.12l.07.507.997-.997q.534-.534.753-.718.218-.192.323-.192.062 0 .132.087.078.088.078.175 0 .061-.035.105-.026.035-.078.07-.044.026-.15.14-.104.114-.227.28-.358.543-1.382 1.365-.35.271-.35.455 0 .123.157.201l.937.438q.647.306 1.076.612.429.307.429.473 0 .184-.175.184-.158 0-.464-.21-.306-.22-.385-.22-.105 0-.105-.07 0-.096-1.068-.49l-.463-.174.06.726q.027.289.027.455 0 .368-.184.368-.28 0-.358-.385-.07-.394-.132-1.987-.052-1.408-.131-1.837-.07-.394-.131-1.173-.053-.787-.053-1.26z"/></g></svg>