<svg xmlns="http://www.w3.org/2000/svg" width="216.038" height="58.845" viewBox="0 0 202.53516 55.166898"><g transform="translate(-19.193 -15.945)" fill="#fff"><path d="M25.254 15.945a6.047 6.047 0 0 0-6.06 6.06v21.216h202.535V22.006a6.047 6.047 0 0 0-6.061-6.06H25.254zm59.851 4.545a9.849 9.849 0 0 1 9.85 9.85 9.849 9.849 0 0 1-9.85 9.85 9.849 9.849 0 0 1-9.847-9.85 9.849 9.849 0 0 1 9.847-9.85zm31.82 1.264a8.334 8.334 0 0 1 8.335 8.334 8.334 8.334 0 0 1-8.334 8.334 8.334 8.334 0 0 1-8.334-8.334 8.334 8.334 0 0 1 8.334-8.334zm-31.82.148a8.438 8.438 0 0 0-8.437 8.438 8.438 8.438 0 0 0 8.437 8.44 8.438 8.438 0 0 0 8.44-8.44 8.438 8.438 0 0 0-8.44-8.438zm.09 2.2a6.329 6.329 0 0 1 6.328 6.328 6.329 6.329 0 0 1-6.328 6.328 6.329 6.329 0 0 1-6.33-6.328 6.329 6.329 0 0 1 6.33-6.328zM19.193 45.746v3.535a6.047 6.047 0 0 0 6.06 6.06h190.415a6.047 6.047 0 0 0 6.06-6.06v-3.535H19.194z"/><rect width="128" height="13.5" x="56.086" y="57.612" ry="6.75"/></g></svg>