<svg xmlns="http://www.w3.org/2000/svg" viewBox="0 0 268.8993 270.77144" height="288.823" width="286.826"><g fill="#4d4d4d"><path d="M240.036 84.371H39.288V216.75h200.748V84.37zm-20.354 112.025H59.637v-91.682h160.045v91.682zM167.271 262.073H10.391v8.698h258.508v-8.698zM239.996 222.894H39.288l-27.345 36.532h255.409l-27.356-36.532zm-28.858 6.708h11.04v5.512h-11.04v-5.512zm17.858 8.797v5.511h-10.931V238.4h10.93zm-13.675 0v5.511h-11.035V238.4h11.035zm-19.279-8.797h11.035v5.512h-11.035v-5.512zm4.188 8.797v5.511h-11.034V238.4h11.034zm-19.618-8.797h11.035v5.512h-11.035v-5.512zm4.189 8.797v5.511h-11.035V238.4h11.035zm-19.987-8.797h11.035v5.512h-11.035v-5.512zm-15.43 0h11.035v5.512h-11.034v-5.512zm4.183 8.797v5.511h-11.034V238.4h11.034zm-19.278-8.797h11.028v5.512H134.29v-5.512zm4.182 8.797v5.511h-11.034V238.4h11.034zm-19.612-8.797h11.034v5.512H118.86v-5.512zm4.188 8.797v5.511h-11.034V238.4h11.034zm-19.952-8.797h11.035v5.512h-11.035v-5.512zm4.189 8.797v5.511H96.249V238.4h11.035zm-19.613-8.797h11.035v5.512H87.67v-5.512zm4.183 8.797v5.511H80.819V238.4h11.035zm-19.279-8.797H83.61v5.512H72.575v-5.512zm4.188 8.797v5.511H65.73V238.4h11.034zm-19.618-8.797H68.18v5.512H57.145v-5.512zm-6.851 8.797h11.04v5.511h-11.04V238.4zm2.145 13.842H41.405v-5.517h11.034v5.517zm14.101 0H55.506v-5.517H66.54v5.517zm15.43 0H70.936v-5.517H81.97v5.517zm15.096 0h-11.04v-5.517H97.06l.006 5.517zm15.424 0h-11.034v-5.517h11.034v5.517zm45.323 0h-40.594v-5.517h40.594v5.517zm.144-13.842h11.034v5.511h-11.034V238.4zm16.247 13.842h-11.035v-5.517h11.035v5.517zm15.803 0h-11.034v-5.517h11.034v5.517zm15.424 0h-11.034v-5.517h11.034v5.517zm15.102 0H209.5v-5.517h11.034v5.517zm13.934 0h-11.034v-5.517h11.034v5.517z"/></g><g font-weight="400" letter-spacing="0" word-spacing="0"><path d="M172.714 185.571V168.43h11.429v17.142h-11.429zm42.857-15.714q1.183 0 2.01.848.848.826.848 2.01v8.57q0 1.184-.849 2.032-.826.826-2.009.826v3.571q0 1.474-1.049 2.523-1.049 1.049-2.522 1.049h-41.429q-1.473 0-2.522-1.05-1.049-1.048-1.049-2.522v-21.428q0-1.473 1.05-2.523 1.048-1.049 2.521-1.049H212q1.473 0 2.522 1.05 1.05 1.049 1.05 2.522v3.571zm0 11.429v-8.572h-2.857v-6.428q0-.313-.2-.514-.202-.2-.514-.2h-41.429q-.312 0-.513.2-.2.201-.2.514v21.428q0 .313.2.514.2.2.513.2H212q.313 0 .513-.2.201-.201.201-.514v-6.428h2.857z" font-size="40" font-family="sans-serif" fill="#ff6161"/><path d="M106 8q1.625 0 2.813 1.187Q110 10.375 110 12v40q0 1.625-1.188 2.813Q107.626 56 106 56H62q-1.625 0-2.813-1.188Q58 53.626 58 52V12q0-1.625 1.188-2.812Q60.374 8 62 8h4V5q0-2.062 1.469-3.531Q68.938 0 71 0h2q2.063 0 3.531 1.469Q78 2.938 78 5v3h12V5q0-2.062 1.469-3.531Q92.938 0 95 0h2q2.063 0 3.531 1.469Q102 2.938 102 5v3h4zM94 5v9q0 .437.281.719.281.281.719.281h2q.438 0 .719-.281Q98 14.437 98 14V5q0-.438-.281-.719Q97.438 4 97 4h-2q-.438 0-.719.281Q94 4.563 94 5zM70 5v9q0 .437.281.719.281.281.719.281h2q.438 0 .719-.281Q74 14.437 74 14V5q0-.438-.281-.719Q73.438 4 73 4h-2q-.438 0-.719.281Q70 4.563 70 5zm36 47V20H62v32h44zM86 34h7q.438 0 .719.281.281.282.281.719v2q0 .438-.281.719Q93.438 38 93 38h-7v7q0 .438-.281.719Q85.438 46 85 46h-2q-.438 0-.719-.281Q82 45.438 82 45v-7h-7q-.438 0-.719-.281Q74 37.438 74 37v-2q0-.437.281-.719Q74.562 34 75 34h7v-7q0-.437.281-.719Q82.562 26 83 26h2q.438 0 .719.281.281.282.281.719v7z" font-size="56" font-family="sans-serif" fill="#ccc"/><path d="M80.909 178.467q1.191.866 2.508 1.409l-8.597 11.826q-.341.47-.934.563-.592.094-1.061-.247l-2.311-1.68q-.47-.342-.564-.934-.093-.592.248-1.062l8.596-11.826q.905 1.071 2.115 1.95zm5.774-21.687q4.677-.74 8.505 2.042 3.828 2.783 4.567 7.46.74 4.677-2.042 8.504-2.783 3.828-7.46 4.568-4.677.74-8.504-2.043-3.828-2.782-4.568-7.46-.74-4.676 2.043-8.504 2.782-3.828 7.46-4.567zm5.565 6.087q.253.184.534.14.28-.045.464-.298t.14-.533q-.045-.281-.298-.465-2.636-1.916-5.847-1.408-3.212.508-5.128 3.144-.184.253-.14.533.045.28.298.465.252.183.533.139.28-.044.464-.297 1.562-2.149 4.181-2.563 2.65-.419 4.8 1.143z" font-size="40" font-family="sans-serif" fill="#ccc"/><path d="M170.375 96.246q.737.535.603 1.428l-5.715 34.286q-.111.647-.714 1.004-.312.179-.692.179-.245 0-.536-.112l-11.763-4.799-6.652 7.3q-.402.468-1.049.468-.312 0-.513-.09-.424-.156-.67-.535-.245-.357-.245-.804v-10.089l-10.536-4.308q-.826-.312-.893-1.228-.067-.87.714-1.317l37.143-21.428q.781-.469 1.518.044zm-7.634 33.46l4.933-29.532-32.009 18.46 7.5 3.058 19.264-14.263-10.67 17.79 10.982 4.486z" font-size="40" font-family="FontAwesome" fill="#ccc"/><path d="M125.149 89.62q.524.525.524 1.243 0 .718-.524 1.243-.525.525-1.244.525h-6.188q0 4.724-1.851 8.012l5.746 5.774q.525.525.525 1.243 0 .719-.525 1.244-.497.525-1.243.525-.746 0-1.243-.525l-5.47-5.443q-.139.138-.415.36-.276.22-1.16.8-.884.553-1.796.995-.912.442-2.266.801-1.353.36-2.68.36V82.021h-3.536v24.754q-1.409 0-2.818-.359-1.381-.387-2.403-.912-.995-.552-1.824-1.077-.8-.553-1.188-.912l-.414-.387-5.056 5.72q-.553.58-1.326.58-.663 0-1.188-.442-.525-.498-.58-1.244-.028-.718.442-1.27l5.58-6.272q-1.602-3.15-1.602-7.57h-6.188q-.719 0-1.244-.525t-.525-1.243q0-.718.525-1.243.525-.525 1.244-.525h6.188v-8.123l-4.78-4.78q-.524-.524-.524-1.243 0-.718.525-1.243.524-.525 1.243-.525.718 0 1.243.525l4.78 4.78h23.317l4.78-4.78q.525-.525 1.243-.525.718 0 1.243.525.525.525.525 1.243 0 .719-.525 1.244l-4.78 4.78v8.122h6.19q.718 0 1.243.525zm-12.737-14.67H94.731q0-3.675 2.569-6.244 2.597-2.597 6.271-2.597 3.675 0 6.244 2.597 2.597 2.569 2.597 6.243z" font-size="49.509" font-family="FontAwesome" fill="#ff6161"/><path d="M29.546 69.994v7.227q0 .839-.613 1.452t-1.452.613h-8.26q-.839 0-1.452-.613t-.613-1.452v-7.227q0-.84.613-1.452.613-.613 1.452-.613h8.26q.839 0 1.452.613t.613 1.452zm.968-34.072l-.904 24.78q-.032.838-.677 1.451-.613.613-1.452.613h-8.26q-.839 0-1.484-.613-.613-.613-.646-1.452l-.903-24.779q-.032-.839.549-1.452.613-.613 1.451-.613h10.325q.839 0 1.42.613.613.613.58 1.452z" font-size="57.818" font-family="FontAwesome" fill="#f9ce59"/><path d="M207.414 53.958q-1.645 5.38-6.135 8.669-4.49 3.29-10.136 3.29-5.646 0-10.136-3.29-4.49-3.29-6.135-8.67-.356-1.11.177-2.133.534-1.067 1.69-1.423 1.111-.355 2.134.178 1.067.534 1.422 1.69 1.112 3.556 4.09 5.779 3.023 2.178 6.758 2.178 3.734 0 6.713-2.178 3.023-2.223 4.134-5.78.356-1.155 1.423-1.689 1.067-.533 2.178-.178 1.112.356 1.645 1.423.534 1.022.178 2.134zm-23.651-23.34q1.69 1.645 1.69 4.001 0 2.356-1.69 4.046-1.645 1.645-4.001 1.645-2.356 0-4.046-1.645-1.645-1.69-1.645-4.046 0-2.356 1.645-4.001 1.69-1.69 4.046-1.69 2.356 0 4.001 1.69zm22.762 0q1.69 1.645 1.69 4.001 0 2.356-1.69 4.046-1.645 1.645-4.001 1.645-2.356 0-4.046-1.645-1.645-1.69-1.645-4.046 0-2.356 1.645-4.001 1.69-1.69 4.046-1.69 2.356 0 4 1.69zm10.803 26.452q2.267-5.29 2.267-11.07t-2.267-11.025q-2.267-5.29-6.09-9.07-3.78-3.823-9.07-6.09-5.246-2.267-11.025-2.267-5.78 0-11.07 2.267-5.246 2.267-9.07 6.09-3.778 3.78-6.045 9.07Q162.69 40.22 162.69 46q0 5.78 2.268 11.07 2.267 5.246 6.046 9.069 3.823 3.779 9.07 6.046 5.29 2.267 11.069 2.267 5.78 0 11.025-2.267 5.29-2.267 9.07-6.046 3.823-3.823 6.09-9.07zm3.379-28.186q4.579 7.825 4.579 17.116t-4.58 17.16q-4.578 7.825-12.447 12.404-7.825 4.579-17.116 4.579-9.292 0-17.16-4.58-7.825-4.578-12.404-12.403Q157 55.291 157 46t4.579-17.116q4.58-7.869 12.404-12.448 7.868-4.579 17.16-4.579 9.291 0 17.116 4.58 7.869 4.578 12.448 12.447z" font-size="79.667" font-family="FontAwesome" fill="#ff6161"/><path d="M28.175 103.837q-3.785-1.48-8.14-1.48-4.354 0-8.139 1.48-3.785 1.48-6.033 4.013-2.22 2.533-2.22 5.436 0 2.333 1.508 4.496 1.509 2.163 4.24 3.757l2.761 1.594-.996 2.39q.968-.569 1.765-1.11l1.252-.882 1.508.285q2.22.398 4.355.398 4.354 0 8.14-1.48 3.784-1.48 6.004-4.012 2.249-2.533 2.249-5.436t-2.249-5.436q-2.22-2.533-6.005-4.013zm-18.214-3.159q4.639-1.964 10.075-1.964 5.436 0 10.046 1.964 4.639 1.935 7.314 5.294 2.675 3.358 2.675 7.314t-2.675 7.314q-2.675 3.358-7.314 5.322-4.61 1.935-10.046 1.935-2.448 0-5.01-.455-3.528 2.504-7.911 3.643-1.025.256-2.448.455h-.085q-.313 0-.598-.228-.256-.227-.313-.597-.028-.086-.028-.171v-.2l.057-.17q.057-.085.085-.142.029-.057.086-.143.085-.113.113-.142l.143-.142q.085-.114.114-.143.142-.17.654-.711.512-.54.74-.825.228-.313.626-.826.427-.54.712-1.11.313-.569.597-1.252-3.529-2.049-5.55-5.037Q0 116.672 0 113.286q0-3.956 2.675-7.314 2.675-3.359 7.286-5.294zm33.469 31.306q.284.683.569 1.252.313.57.711 1.11.427.512.655.797.228.313.74.854.512.54.654.711l.114.114q.086.114.114.142.057.057.114.143.085.113.114.17.028.057.057.143.057.085.057.17.028.086.028.171 0 .114-.028.2-.086.398-.37.626-.285.227-.626.199-1.423-.2-2.448-.456-4.383-1.138-7.912-3.642-2.561.455-5.009.455-7.712 0-13.433-3.757 1.65.114 2.505.114 4.582 0 8.794-1.28 4.212-1.281 7.513-3.672 3.558-2.618 5.464-6.033 1.907-3.416 1.907-7.23 0-2.19-.654-4.325 3.671 2.02 5.806 5.066Q51 117.07 51 120.57q0 3.416-2.02 6.404-2.021 2.96-5.55 5.009z" font-size="51" font-family="FontAwesome" fill="#f9ce59"/><path d="M131.571 151.714q0-.312-.2-.513-.201-.201-.514-.201h-5v-7.857q0-.29-.223-.491-.201-.223-.491-.223h-4.286q-.29 0-.513.223-.201.2-.201.49V151h-5q-.29 0-.514.223-.2.201-.2.491 0 .313.2.514l7.858 7.857q.2.2.513.2t.513-.2l7.835-7.835q.223-.268.223-.536zm14.286 5q0 3.55-2.522 6.072-2.5 2.5-6.05 2.5H113q-4.13 0-7.076-2.924-2.924-2.947-2.924-7.076 0-2.902 1.562-5.357 1.563-2.456 4.197-3.683-.045-.67-.045-.96 0-4.732 3.349-8.08 3.348-3.349 8.08-3.349 3.482 0 6.361 1.942 2.902 1.942 4.22 5.156 1.584-1.384 3.705-1.384 2.366 0 4.04 1.675 1.674 1.674 1.674 4.04 0 1.696-.915 3.08 2.901.692 4.754 3.036 1.875 2.321 1.875 5.312z" font-size="40" font-family="FontAwesome" fill="#f9ce59"/><path d="M238.524 119.232q.482 0 .482-.553 0-.554-.482-.554-1.78 0-3.077-1.488-1.267-1.453-1.267-3.494 0-.554-.482-.554-.483 0-.483.554 0 2.526 1.539 4.29 1.568 1.8 3.77 1.8zm-19.606-10.518h39.211q-8.023-10.38-8.023-28.785 0-1.765-.724-3.633-.724-1.869-2.08-3.564-1.358-1.695-3.68-2.768-2.293-1.107-5.098-1.107-2.805 0-5.128 1.107-2.292 1.073-3.65 2.768-1.357 1.695-2.08 3.564-.725 1.868-.725 3.633 0 18.406-8.023 28.785zm44.701 0q0 1.8-1.146 3.114-1.146 1.315-2.715 1.315h-13.513q0 3.667-2.262 6.262-2.262 2.595-5.46 2.595-3.196 0-5.459-2.595-2.262-2.595-2.262-6.262H217.29q-1.568 0-2.714-1.315t-1.146-3.114q1.508-1.453 2.744-3.044 1.237-1.592 2.564-4.118 1.327-2.56 2.232-5.5.935-2.942 1.508-7.128.604-4.186.604-8.995 0-5.26 3.529-9.757 3.529-4.533 9.26-5.501-.242-.658-.242-1.35 0-1.384.845-2.352.844-.969 2.05-.969 1.207 0 2.052.969.844.968.844 2.352 0 .692-.24 1.35 5.73.968 9.259 5.5 3.529 4.499 3.529 9.758 0 4.809.573 8.995.603 4.186 1.508 7.127.935 2.941 2.262 5.501 1.328 2.526 2.564 4.118 1.237 1.591 2.745 3.044z" font-size="57.889" font-family="FontAwesome" fill="#b3b3b3"/><path d="M22.29 188.004q.424-.424.424-1.004 0-.58-.424-1.004-.424-.425-1.004-.425-.58 0-1.005.425-.424.424-.424 1.004 0 .58.424 1.004.424.425 1.005.425.58 0 1.004-.425zm26.139-13.861q0-1.139-.871-1.987-.87-.87-1.987-.87h-7.857q0-1.295 1.072-3.55 1.071-2.276 1.071-3.593 0-2.188-.714-3.237t-2.857-1.049q-.58.58-.848 1.897-.268 1.317-.692 2.813-.402 1.473-1.317 2.433-.491.513-1.72 2.031-.088.112-.513.67-.424.558-.714.915-.268.357-.759.96-.49.58-.893.982-.401.38-.87.781-.447.402-.893.603-.424.2-.781.2h-.715v14.287h.715q.29 0 .692.067.424.067.736.156.335.067.849.245.535.157.78.246.269.09.804.29.536.179.648.223 4.71 1.63 7.634 1.63h2.7q4.286 0 4.286-3.728 0-.58-.111-1.25.67-.357 1.049-1.16.401-.827.401-1.652 0-.826-.401-1.54 1.183-1.117 1.183-2.657 0-.558-.223-1.228-.224-.691-.559-1.071.715-.022 1.184-1.05.49-1.026.49-1.807zm2.857-.022q0 1.986-1.094 3.638.2.737.2 1.54 0 1.719-.847 3.214.067.47.067.96 0 2.255-1.34 3.973.023 3.103-1.897 4.889-1.92 1.808-5.067 1.808H38.429q-2.143 0-4.242-.514-2.075-.49-4.82-1.45-2.59-.893-3.081-.893h-6.429q-1.183 0-2.031-.826-.826-.848-.826-2.031v-14.286q0-1.183.826-2.01.848-.847 2.031-.847h6.116q.804-.536 3.058-3.46 1.295-1.674 2.389-2.857.535-.558.78-1.898.269-1.361.693-2.834.424-1.474 1.384-2.411.87-.826 2.009-.826 1.875 0 3.37.737 1.496.714 2.277 2.254.781 1.54.781 4.152 0 2.076-1.071 4.286h3.928q2.322 0 4.018 1.696 1.697 1.696 1.697 3.996z" font-size="40" font-family="FontAwesome" fill="#ccc"/><text y="337.362" x="365" style="line-height:125%" font-size="40" font-family="sans-serif" transform="translate(-36 -27.076)"/></g></svg>