<svg xmlns="http://www.w3.org/2000/svg" xmlns:xlink="http://www.w3.org/1999/xlink" viewBox="0 0 581.99354 651.33592" height="694.758" width="620.793"><defs><linearGradient id="b"><stop offset="0" stop-color="#333"/><stop offset="1" stop-color="#333" stop-opacity="0"/></linearGradient><linearGradient id="a"><stop offset="0"/><stop offset="1" stop-opacity="0"/></linearGradient><linearGradient y2="406.445" x2="691.003" y1="406.445" x1="109.009" gradientUnits="userSpaceOnUse" id="c" xlink:href="#a"/><linearGradient y2="406.445" x2="610.584" y1="406.445" x1="189.428" gradientUnits="userSpaceOnUse" id="d" xlink:href="#b"/></defs><path d="M290.993 0v.004C176.245 66.716 144.104 75.297 0 102c-.336 298.668 139.19 486.103 290 549l.996.336.996-.336c150.809-62.897 290.335-250.332 290-549C437.889 75.297 405.748 66.716 291 .004V0l-.004.002-.004-.002zm0 67.43h.002l.002.002.004-.002v.004c90.989 52.9 116.475 59.702 230.742 80.877.266 236.829-110.373 385.455-229.957 435.33l-.79.265-.788-.265C170.624 533.766 59.985 385.14 60.25 148.31c114.267-21.175 139.753-27.978 230.742-80.877v-.004z" fill="#00a4a2" fill-rule="evenodd"/><path d="M290.994 90v.003c-83.037 48.276-106.295 54.485-210.575 73.809-.243 216.13 100.725 351.766 209.857 397.281l.72.243.722-.243c109.132-45.515 210.1-181.151 209.857-397.281-104.28-19.324-127.539-25.533-210.575-73.81V90h-.006z" fill="#f9ce59" fill-rule="evenodd"/><g fill="#fff"><path d="M290.995 90v.004l-.004.002v471.328l.006.002.72-.242c109.133-45.516 210.1-181.152 209.858-397.282-104.28-19.323-127.54-25.534-210.576-73.81V90h-.002-.002z" opacity=".2"/><path d="M290.993 0v.004l-.002.002v67.43l.002-.002v-.004h.002l.002.002.004-.002v.004c90.989 52.899 116.475 59.702 230.742 80.877.266 236.828-110.373 385.455-229.957 435.33l-.79.265-.005-.002v67.43l.006.002.996-.336c150.81-62.897 290.335-250.332 290-549C437.889 75.297 405.748 66.716 291.001.004V0l-.004.002-.004-.002z" opacity=".2"/></g></svg>