<svg xmlns="http://www.w3.org/2000/svg" viewBox="0 0 370 370"><g fill="#fff"><path d="M274.221 284.781c40.578-28.245 67.146-75.225 67.146-128.415C341.367 70.008 271.358 0 185 0 98.643 0 28.633 70.008 28.633 156.365c0 53.19 26.568 100.17 67.146 128.415l-37.202 38.376a21.42 21.42 0 0 0-3.972 12.416v13.031c0 11.817 9.58 21.396 21.396 21.396h217.998c11.815 0 21.395-9.579 21.395-21.396v-13.031a21.42 21.42 0 0 0-3.972-12.416l-37.201-38.375zM185 83.383c40.309 0 72.983 32.676 72.983 72.982 0 40.307-32.674 72.983-72.983 72.983s-72.982-32.676-72.982-72.983c0-40.306 32.673-72.982 72.982-72.982zm-83.048 249.033l28.549-29.454c16.969 6.314 35.328 9.769 54.499 9.769s37.53-3.455 54.499-9.769l28.549 29.454H101.952z"/><path d="M185 201.689c25.033 0 45.322-20.291 45.322-45.324 0-16.152-8.456-30.32-21.177-38.349-.274 7.068-10.968 12.752-24.145 12.752-13.176 0-23.871-5.684-24.145-12.752-12.721 8.028-21.177 22.197-21.177 38.349 0 25.033 20.289 45.324 45.322 45.324z"/></g></svg>