<svg xmlns="http://www.w3.org/2000/svg" height="370.161" viewBox="0 0 419.99899 370.16089" width="419.999"><path d="M196.159 190.385l-40.606 139.527s-45.126-29.357-77.188-26.684c-32.039 2.673-59.839 7.534-78.365 17.12l39.984-139.101s45.058-20.965 82.467-18.283c37.394 2.675 67.275 22.796 73.708 27.421zm6.654-25.18L243.01 27.137c-71.811-55.008-155.744-9.366-155.744-9.366L47.062 156.918s44.002-15.981 77.378-19.323c33.376-3.342 78.373 27.61 78.373 27.61zm85.27 65.894c-28.059.669-70.898-27.208-70.898-27.208l-39.984 138.304c7.346 2.894 31.416 25.803 71.484 27.831 40.075 1.99 84.29-18.701 84.29-18.701s38.915-136.221 40.128-138.229c-.171.125-.573.388-.774.473-37.478 14.673-56.604 16.861-84.246 17.53zm85.02-18.004c.087-.064.118-.095.023-.044-.004.003-.017.032-.023.044zM332.169 68.792C297.434 64.774 275.824 50 264.256 41.721L223.99 179.007s32.708 32.039 78.776 29.38c46.113-2.673 71.119-17.211 77.248-19.263l39.985-138.493s-53.109 22.172-87.83 18.161z" fill="#fff"/></svg>