<svg xmlns="http://www.w3.org/2000/svg" width="1000" height="485.761"><path d="M.5 274.957h233.755l35.957 58.466H.5v-58.466zm0-91.347v58.05h213.269l-35.713-58.05H.5zm228.79-33.297H.5v-58.16h244.126c.11 2.28.172 4.585.147 6.939-.196 21.638-5.382 38.324-15.484 51.22M117.886.5H.5v58.368h236.82C220.204 18.988 175.15.5 117.885.5M396.89 391.812h-17.323l-9.305-11.757h13.62l4.5 6.816 4.303-6.816h13.829l-9.624 11.757zm346.555 50.485c0 7.76-2.636 16.33-11.806 16.33-8.974 0-11.806-8.263-11.806-15.827 0-7.76 3.04-15.423 12.002-15.423 8.778 0 11.61 7.454 11.61 14.92m15.227.6c0-15.63-10.09-27.424-26.126-27.424-16.942 0-27.927 10.997-27.927 27.94 0 16.035 10.188 27.326 26.518 27.326 16.231 0 27.535-11.708 27.535-27.841m-56.468-13.204v-13.51c-.907-.11-1.717-.208-2.636-.208-7.05 0-10.985 3.028-13.498 9.574v-8.57h-14.528v52.24h15.227v-17.042c0-2.623 0-5.345.11-7.969.196-8.47 1.41-14.821 11.794-14.821 1.214 0 2.317.098 3.53.306M588.852 469.22l-21.565-32.476 20.155-19.762h-19.26l-16.133 17.85v-36.804h-14.822v71.192h14.822v-17.347l4.842-4.843 13.106 22.19h18.855zm-59.275-16.023c0-13.118-12.922-15.447-23-17.556-2.72-.6-8.875-1.312-8.875-5.039 0-3.739 4.438-4.242 7.257-4.242 2.832 0 6.044 1.018 7.871 3.335.81 1.005 1.103 3.016 1.312 4.23l13.915-.711c-.601-12.8-11.402-17.74-22.89-17.74-10.591 0-21.785 4.23-21.785 16.538 0 20.866 31.054 13.314 31.054 22.693 0 4.131-4.23 4.83-7.454 4.83-6.657 0-10.187-1.912-11.095-8.668l-14.123.503c0 1.716.098 3.126.503 4.843 2.623 10.8 13.718 14.527 23.71 14.527 11.39 0 23.6-4.045 23.6-17.543m-67.771-17.053h-20.879c1.619-5.946 4.843-8.974 11.193-8.974 5.346 0 9.183 3.726 9.686 8.974m15.63 11.303v-2.525c0-16.134-8.275-29.448-25.72-29.448-16.036 0-26.42 12.002-26.42 27.633 0 16.036 9.882 27.633 26.42 27.633 11.5 0 21.38-5.455 25.108-16.636l-14.92-1.018c-2.22 3.936-5.137 5.542-9.784 5.542-6.853 0-10.384-4.732-11.29-11.181h36.607zm-55.364-2.023l-16.636-1.103c-.098 8.067-7.663 13.105-15.227 13.105-4.033 0-7.87-1.311-10.997-3.837-6.044-5.05-7.257-13.007-7.257-20.375 0-11.794 4.744-23.49 18.254-23.49 5.542 0 10.482 2.121 13.302 7.16.613 1.213 1.214 2.427 1.52 3.727l16.036-1.104c-.196-1.716-.711-3.236-1.214-4.842-4.23-12.603-16.832-18.353-29.448-18.353-22.275 0-35.7 15.227-35.7 37.012 0 14.92 7.062 29.546 21.491 35.185 4.426 1.716 9.269 2.317 14.013 2.317 11.598 0 22.386-4.23 28.332-14.613a27.707 27.707 0 0 0 3.531-10.789m507.525 6.841c-2.514 4.34-7.258 6.767-12.199 6.767-3.432 0-6.963-1.63-6.963-5.566 0-6.755 10.8-6.853 15.533-8.066a24.65 24.65 0 0 0 3.629-1.202v8.067zm14.736-12.1c0-4.242.196-10.298-1.422-14.221-3.838-9.085-13.621-10.507-22.276-10.507-11.806 0-21.602 5.051-22.313 18.07h13.731c-.196-5.148 5.039-6.558 9.182-6.558 3.127 0 7.97.797 7.97 4.842 0 3.727-5.456 3.936-8.08 4.328-11.291 1.618-25.72 2.93-25.72 17.764 0 10.58 8.066 16.845 18.168 16.845 7.454 0 10.69-2.219 16.44-6.265l.098 4.745h14.234l-.012-29.043zm55.168 13.08c0-13.117-12.897-15.434-22.987-17.543-2.721-.613-8.876-1.312-8.876-5.05 0-3.728 4.438-4.23 7.258-4.23 2.832 0 6.056 1.005 7.87 3.322.797 1.005 1.104 3.028 1.312 4.242l13.915-.711c-.613-12.811-11.39-17.752-22.889-17.752-10.592 0-21.785 4.242-21.785 16.538 0 20.878 31.054 13.314 31.054 22.693 0 4.131-4.218 4.842-7.467 4.842-6.644 0-10.187-1.912-11.082-8.667l-14.123.49c0 1.716.098 3.139.502 4.843 2.624 10.8 13.719 14.527 23.698 14.527 11.402 0 23.6-4.033 23.6-17.543M887.668 469.28h-14.822V398.09h14.822v71.191zm-39.93 0V440.03c0-3.322.208-7.356-2.513-9.783-1.422-1.312-3.335-1.815-5.247-1.815-2.22 0-4.034.613-5.75 2.023-3.543 2.93-3.323 7.859-3.323 11.99v26.836h-14.723v-71.204h14.723v24.311c2.305-4.143 9.771-6.559 14.21-6.559 3.444 0 7.564.908 10.383 2.93 6.057 4.328 7.062 10.176 7.062 17.14v33.382h-14.822zm-85.413 0v-11.107l25.819-28.822h-22.889v-12.309h41.34v12.002l-25.01 27.928h26.726v12.308h-45.986zM631.355 395h-17.788l-7.234 15.054h11.537L631.355 395zm6.24 21.98h-15.729l-8.667 35.198-9.49-35.197h-16.133l15.129 42.357c.809 2.317 2.12 4.94 2.12 7.466 0 1.704-.809 4.23-2.219 5.345-1.422 1.104-4.548 1.312-6.264 1.312-1.3 0-2.612-.098-3.923-.098v11.696c1.311 0 2.623.196 3.923.196 6.46 0 14.626.404 19.064-5.137 2.12-2.722 3.837-7.969 4.94-11.291l17.25-51.846zM522.186 183.611h-31.25v150.095h31.25V183.611zm119.053 150.095V223.578h-30.404v47.2c0 4.89-.417 9.574-.417 14.453 0 12.763-2.77 25.304-18.5 25.304-14.883 0-17.224-11.695-17.224-23.808v-63.15h-31.25v64.204c0 16.796.858 35.087 17.225 44.22 5.946 3.41 12.97 4.476 19.554 4.476 11.266 0 25.083-4.892 31.25-14.884v12.113h29.766zm116.712-33.8c0-27.633-27.217-32.525-48.475-36.987-5.737-1.275-18.708-2.77-18.708-10.63 0-7.87 9.354-8.937 15.312-8.937 5.946 0 12.75 2.134 16.588 7.013 1.691 2.133 2.329 6.387 2.758 8.937l29.337-1.495c-1.275-26.996-24.029-37.417-48.254-37.417-22.324 0-45.924 8.937-45.924 34.867 0 44.012 65.478 28.062 65.478 47.837 0 8.716-8.925 10.2-15.729 10.2-14.037 0-21.479-4.034-23.391-18.28l-29.754 1.067c0 3.617.209 6.584 1.054 10.2 5.53 22.754 28.92 30.612 49.958 30.612 24.03 0 49.75-8.495 49.75-36.987M417.758 183.611c22.693 0 42.848 3.188 53.66 25.672 3.188 6.78 4.671 15.484 4.671 22.9 0 10.814-2.55 22.277-9.341 30.969-13.572 17.813-30.956 18.45-51.32 18.45h-21.417v51.748h-33.935V183.611h57.682zm-23.747 70.42h21.21c13.142 0 27.142-3.605 27.142-21.639 0-20.78-18.659-21.417-30.968-21.417h-17.384v43.056z" fill="#fc9733"/></svg>